<svg width="196" height="59" viewBox="0 0 196 59" fill="none" xmlns="http://www.w3.org/2000/svg">
<g filter="url(#filter0_b)">
<path d="M22.1571 46.9264C16.5324 48.2886 13.4767 51.2566 8.12061 57.7407M22.1334 46.5481C15.0416 46.9391 11.4971 49.6134 5.30043 55.0968M22.1334 45.9752C15.459 45.543 11.1654 47.1229 2.9209 51.88" stroke="#79A7EC" stroke-width="1.05986" stroke-linecap="round"/>
</g>
<g filter="url(#filter1_b)">
<path d="M36.1056 46.9264C41.7303 48.2886 44.786 51.2566 50.1421 57.7407M36.1293 46.5481C43.2211 46.9391 46.7656 49.6134 52.9623 55.0968M36.1293 45.9752C42.8037 45.543 47.0973 47.1229 55.3418 51.88" stroke="#79A7EC" stroke-width="1.05986" stroke-linecap="round"/>
</g>
<path fill-rule="evenodd" clip-rule="evenodd" d="M13.113 29.8679C20.0404 28.5566 24.1973 29.8679 23.353 35.5598C23.3061 35.1696 23.194 34.9708 22.8356 34.6611C18.0696 36.0772 16.2542 34.5981 15.3735 30.4126C14.957 29.9371 14.3558 29.8778 13.113 29.8679ZM16.6838 31.8533C16.4404 31.6117 16.3883 31.6876 16.4986 32.0048C17.6263 34.4959 18.9897 35.186 21.262 33.688C21.5431 33.5027 21.4337 33.3804 21.161 33.486C18.8214 34.5464 17.846 33.6844 16.6838 31.8533Z" fill="#3B6DB8"/>
<path d="M23.353 35.5598L23.1777 35.5809L23.5278 35.5857L23.353 35.5598ZM13.113 29.8679L13.0802 29.6943L13.1116 30.0445L13.113 29.8679ZM22.8356 34.6611L22.9511 34.5274L22.8779 34.4642L22.7853 34.4918L22.8356 34.6611ZM15.3735 30.4126L15.5463 30.3762L15.5368 30.331L15.5064 30.2962L15.3735 30.4126ZM16.4986 32.0048L16.3318 32.0628L16.3344 32.0704L16.3377 32.0776L16.4986 32.0048ZM16.6838 31.8533L16.8329 31.7587L16.8223 31.7419L16.8082 31.7279L16.6838 31.8533ZM21.262 33.688L21.1648 33.5405L21.1648 33.5405L21.262 33.688ZM21.161 33.486L21.0971 33.321L21.0881 33.3251L21.161 33.486ZM23.5278 35.5857C23.7418 34.1426 23.6419 32.9584 23.2462 32.0164C22.8489 31.0703 22.1594 30.3835 21.2247 29.9288C19.3701 29.0267 16.5492 29.0377 13.0802 29.6943L13.1459 30.0415C16.6043 29.3868 19.3255 29.3978 21.0701 30.2465C21.9351 30.6672 22.5594 31.2935 22.9205 32.1532C23.2833 33.0169 23.3864 34.1311 23.1783 35.5339L23.5278 35.5857ZM22.7201 34.7948C22.8934 34.9445 22.9937 35.0563 23.0579 35.1682C23.1207 35.2776 23.1558 35.3994 23.1777 35.5809L23.5284 35.5387C23.5033 35.33 23.459 35.1573 23.3643 34.9924C23.2711 34.8299 23.1362 34.6874 22.9511 34.5274L22.7201 34.7948ZM15.2006 30.449C15.643 32.5513 16.3298 34.0315 17.5548 34.7878C18.7811 35.5448 20.4903 35.5423 22.8859 34.8304L22.7853 34.4918C20.415 35.1961 18.8335 35.162 17.7404 34.4871C16.646 33.8115 15.9847 32.4594 15.5463 30.3762L15.2006 30.449ZM13.1116 30.0445C13.7351 30.0495 14.1789 30.0672 14.5166 30.1385C14.8457 30.2079 15.0629 30.3261 15.2406 30.529L15.5064 30.2962C15.2676 30.0236 14.9759 29.8743 14.5896 29.7928C14.212 29.7131 13.7337 29.6962 13.1144 29.6913L13.1116 30.0445ZM16.6655 31.9468C16.6393 31.8715 16.6261 31.8197 16.6216 31.7884C16.6194 31.7724 16.6206 31.7696 16.6198 31.7755C16.6194 31.7788 16.6152 31.814 16.5808 31.847C16.5625 31.8646 16.5402 31.8767 16.517 31.8829C16.4949 31.8887 16.4766 31.888 16.4652 31.8864C16.4452 31.8837 16.4378 31.8772 16.4473 31.8828C16.4651 31.8933 16.5014 31.9212 16.5593 31.9787L16.8082 31.7279C16.7444 31.6646 16.6829 31.6114 16.6259 31.578C16.5981 31.5617 16.559 31.5427 16.513 31.5364C16.4617 31.5294 16.3924 31.5382 16.3363 31.592C16.2871 31.6391 16.2735 31.6974 16.2692 31.732C16.2646 31.7692 16.2673 31.8063 16.2719 31.8382C16.2811 31.9028 16.3028 31.9795 16.3318 32.0628L16.6655 31.9468ZM21.1648 33.5405C20.0469 34.2775 19.2014 34.4435 18.5149 34.1776C17.8173 33.9074 17.2194 33.1687 16.6595 31.9319L16.3377 32.0776C16.9055 33.332 17.5532 34.1839 18.3873 34.507C19.2325 34.8344 20.2048 34.5965 21.3592 33.8354L21.1648 33.5405ZM21.2248 33.6507C21.2806 33.6291 21.3169 33.6237 21.3333 33.6236C21.3414 33.6235 21.3381 33.6247 21.3276 33.621C21.3168 33.6172 21.2911 33.605 21.271 33.574C21.2494 33.5407 21.2476 33.5063 21.2515 33.4842C21.2548 33.4653 21.2615 33.4577 21.2582 33.4624C21.2513 33.4723 21.226 33.5001 21.1648 33.5405L21.3592 33.8354C21.4385 33.7832 21.5049 33.7262 21.548 33.6644C21.5857 33.6103 21.6409 33.4952 21.5673 33.3818C21.5024 33.2816 21.3885 33.2696 21.3294 33.2703C21.2574 33.2711 21.1778 33.2901 21.0972 33.3213L21.2248 33.6507ZM16.5346 31.948C17.1156 32.8632 17.6737 33.579 18.4074 33.9146C19.1549 34.2566 20.0414 34.1874 21.2339 33.6469L21.0881 33.3251C19.941 33.845 19.17 33.875 18.5544 33.5933C17.9249 33.3053 17.4142 32.6745 16.8329 31.7587L16.5346 31.948Z" fill="#79A7EC"/>
<path fill-rule="evenodd" clip-rule="evenodd" d="M53.7646 29.3737C55.2986 35.8857 54.0883 39.9012 49.1461 47.5529C49.9621 43.8629 49.1459 42.6562 46.1306 41.5599C43.992 40.8957 42.7163 40.6131 40.2591 40.3203C34.406 39.0504 32.4677 37.5159 32.6913 32.5242C31.7323 24.2805 28.2791 20.3018 19.5129 20.5853C15.937 20.1375 15.0032 18.987 14.1958 16.2143C12.5256 9.15747 11.1979 6.0787 6.70321 3.72468C5.11231 3.06519 3.92598 3.46274 3.37959 5.27808C1.71179 9.33673 2.12166 13.4197 4.54038 19.8677C3.97325 24.6939 4.30315 26.9838 6.00827 30.3387C4.93014 33.614 5.34382 35.9134 7.05252 40.4561C4.76011 36.8532 4.04503 34.6584 4.66587 30.1608C2.97193 26.3986 2.67685 24.2198 3.02796 20.2398C0.597769 11.4121 0.423122 7.54815 2.74719 3.06519C3.78378 1.7009 4.56253 1.49847 6.06979 1.47409C10.4335 3.37749 12.863 6.00752 15.7227 9.10345L15.7227 9.10346L15.7227 9.10347L15.7228 9.10348C16.6191 10.0738 17.5577 11.09 18.6114 12.1438C26.0878 8.85056 30.6129 8.72545 39.2958 11.6759C43.5227 6.31571 46.061 4.03961 50.9015 1.33369C53.3762 0.731294 54.2358 1.09427 55.16 2.55042C57.9421 9.50854 57.6178 14.2777 54.256 24.0673C53.6258 26.106 53.5443 27.27 53.7646 29.3737ZM53.6356 21.5316C51.9938 23.6716 50.5841 23.035 49.691 20.0639C49.2563 19.1559 48.5738 19.0024 46.6178 19.33C43.4673 21.6935 39.5564 16.4184 42.4896 12.2204C45.668 7.44559 47.6396 5.36136 51.6633 3.23023C52.7511 2.80715 53.2364 2.9458 53.8498 3.94899C55.6875 9.87111 55.579 13.5785 53.6356 21.5316ZM43.1587 30.6905C43.4208 30.3108 43.5657 30.3645 43.4968 30.8708C41.7047 35.0975 39.766 36.6417 35.5167 35.0412C35.0632 34.8036 35.1545 34.6479 35.6182 34.7481C39.6319 35.8708 41.4004 34.7481 43.1587 30.6905ZM41.3339 31.9454C41.4443 31.6282 41.3922 31.5523 41.1488 31.794C39.9865 33.6251 39.0112 34.487 36.6716 33.4266C36.3989 33.321 36.2895 33.4433 36.5706 33.6286C38.8428 35.1266 40.2062 34.4365 41.3339 31.9454ZM44.27 30.1617C37.2968 29.5555 35.0988 30.6109 34.762 35.4274C34.762 35.7466 34.6241 35.7599 34.5483 35.4274C33.8068 30.1617 37.2769 27.8467 44.4413 29.8811C44.9442 30.0239 44.8731 30.2529 44.27 30.1617Z" fill="#3B6DB8"/>
<path d="M49.1461 47.5529L48.9736 47.5148L49.2945 47.6488L49.1461 47.5529ZM53.7646 29.3737L53.5889 29.3921L53.5901 29.4033L53.5927 29.4142L53.7646 29.3737ZM46.1306 41.5599L46.1911 41.3937L46.183 41.3912L46.1306 41.5599ZM40.2591 40.3203L40.2216 40.493L40.2298 40.4947L40.2382 40.4957L40.2591 40.3203ZM32.6913 32.5242L32.8678 32.5321L32.8684 32.5179L32.8667 32.5038L32.6913 32.5242ZM19.5129 20.5853L19.4909 20.7606L19.5047 20.7623L19.5186 20.7619L19.5129 20.5853ZM14.1958 16.2143L14.0237 16.255L14.0262 16.2637L14.1958 16.2143ZM6.70321 3.72468L6.78516 3.5682L6.77816 3.56454L6.77085 3.56151L6.70321 3.72468ZM3.37959 5.27808L3.54298 5.34522L3.54626 5.33725L3.54874 5.32899L3.37959 5.27808ZM4.54038 19.8677L4.71581 19.8883L4.72081 19.8458L4.70577 19.8057L4.54038 19.8677ZM6.00827 30.3387L6.17605 30.3939L6.19902 30.3241L6.16574 30.2586L6.00827 30.3387ZM7.05252 40.4561L6.90349 40.551L7.21786 40.3939L7.05252 40.4561ZM4.66587 30.1608L4.84085 30.1849L4.8478 30.1346L4.82693 30.0882L4.66587 30.1608ZM3.02796 20.2398L3.20392 20.2553L3.20672 20.2236L3.19827 20.1929L3.02796 20.2398ZM2.74719 3.06519L2.60654 2.95833L2.59735 2.97042L2.59036 2.98389L2.74719 3.06519ZM6.06979 1.47409L6.14041 1.31218L6.10527 1.29685L6.06693 1.29747L6.06979 1.47409ZM15.7227 9.10345L15.5929 9.22341L15.5978 9.22836L15.7227 9.10345ZM15.7227 9.10346L15.8573 8.98816L15.8476 8.97855L15.7227 9.10346ZM15.7227 9.10347L15.8697 9.00548L15.8638 8.99661L15.8569 8.98851L15.7227 9.10347ZM15.7228 9.10348L15.5758 9.20146L15.5835 9.21308L15.593 9.22333L15.7228 9.10348ZM18.6114 12.1438L18.4865 12.2687L18.572 12.3542L18.6826 12.3055L18.6114 12.1438ZM39.2958 11.6759L39.239 11.8431L39.3572 11.8833L39.4345 11.7853L39.2958 11.6759ZM50.9015 1.33369L50.8597 1.16206L50.8363 1.16775L50.8153 1.1795L50.9015 1.33369ZM55.16 2.55042L55.3241 2.48484L55.318 2.46961L55.3092 2.45576L55.16 2.55042ZM54.256 24.0673L54.0888 24.0099L54.0872 24.0152L54.256 24.0673ZM49.691 20.0639L49.8601 20.013L49.8562 19.9999L49.8503 19.9876L49.691 20.0639ZM53.6356 21.5316L53.7758 21.6392L53.7984 21.6097L53.8072 21.5736L53.6356 21.5316ZM46.6178 19.33L46.5886 19.1558L46.5462 19.1629L46.5118 19.1887L46.6178 19.33ZM42.4896 12.2204L42.6345 12.3216L42.6367 12.3183L42.4896 12.2204ZM51.6633 3.23023L51.5993 3.0656L51.5897 3.06932L51.5806 3.07413L51.6633 3.23023ZM53.8498 3.94899L54.0185 3.89664L54.012 3.87562L54.0005 3.85684L53.8498 3.94899ZM43.4968 30.8708L43.6595 30.9398L43.6687 30.918L43.6719 30.8946L43.4968 30.8708ZM43.1587 30.6905L43.0133 30.5901L43.0035 30.6043L42.9966 30.6202L43.1587 30.6905ZM35.5167 35.0412L35.4348 35.1976L35.4444 35.2027L35.4545 35.2065L35.5167 35.0412ZM35.6182 34.7481L35.6659 34.5777L35.6555 34.5755L35.6182 34.7481ZM41.1488 31.794L41.0244 31.6686L41.0103 31.6826L40.9997 31.6993L41.1488 31.794ZM41.3339 31.9454L41.4949 32.0183L41.4982 32.011L41.5008 32.0035L41.3339 31.9454ZM36.6716 33.4266L36.7446 33.2655L36.7354 33.2619L36.6716 33.4266ZM36.5706 33.6286L36.6678 33.4811L36.6678 33.4811L36.5706 33.6286ZM34.762 35.4274L34.5854 35.4151V35.4274H34.762ZM44.27 30.1617L44.2964 29.9867L44.2853 29.9858L44.27 30.1617ZM34.5483 35.4274L34.3734 35.452L34.3745 35.4594L34.3761 35.4666L34.5483 35.4274ZM44.4413 29.8811L44.4895 29.7111L44.4895 29.7111L44.4413 29.8811ZM49.2945 47.6488C51.7679 43.8194 53.3188 40.8833 54.0548 38.0808C54.7925 35.2718 54.7084 32.6097 53.9366 29.3332L53.5927 29.4142C54.3548 32.6497 54.4326 35.2514 53.7131 37.991C52.9919 40.7372 51.4666 43.6347 48.9977 47.4571L49.2945 47.6488ZM46.0703 41.7259C47.5721 42.2719 48.4733 42.8289 48.9192 43.6668C49.3664 44.5071 49.3803 45.6761 48.9736 47.5148L49.3186 47.5911C49.728 45.7398 49.7417 44.4604 49.231 43.5008C48.719 42.5387 47.7045 41.9441 46.191 41.3939L46.0703 41.7259ZM40.2382 40.4957C42.6847 40.7872 43.9499 41.0676 46.0783 41.7286L46.183 41.3912C44.0341 40.7238 42.7478 40.4389 40.28 40.1449L40.2382 40.4957ZM32.5148 32.5163C32.4021 35.0328 32.8319 36.7261 34.0727 37.944C35.3008 39.1494 37.2953 39.858 40.2216 40.493L40.2965 40.1477C37.3698 39.5127 35.4686 38.8191 34.3202 37.6918C33.1844 36.577 32.7569 35.0073 32.8678 32.5321L32.5148 32.5163ZM19.5186 20.7619C23.8765 20.6209 26.8763 21.5405 28.9077 23.4846C30.9427 25.4323 32.0382 28.4385 32.5158 32.5446L32.8667 32.5038C32.3854 28.3662 31.2748 25.2611 29.1519 23.2294C27.0254 21.1942 23.9155 20.2662 19.5072 20.4088L19.5186 20.7619ZM14.0262 16.2637C14.4317 17.6563 14.8783 18.6789 15.6992 19.404C16.5204 20.1294 17.6907 20.5351 19.4909 20.7606L19.5348 20.4101C17.7592 20.1877 16.6746 19.7942 15.9331 19.1392C15.1913 18.484 14.7673 17.545 14.3654 16.1649L14.0262 16.2637ZM6.62125 3.88117C8.84262 5.04457 10.2713 6.38031 11.355 8.29301C12.4438 10.2149 13.1888 12.7264 14.0239 16.255L14.3677 16.1736C13.5326 12.6454 12.7786 10.0891 11.6624 8.11886C10.5409 6.13947 9.05849 4.75882 6.78516 3.5682L6.62125 3.88117ZM3.54874 5.32899C3.81353 4.44925 4.22152 3.95101 4.71984 3.73544C5.22151 3.51843 5.86182 3.56711 6.63556 3.88786L6.77085 3.56151C5.9537 3.22276 5.2054 3.14047 4.57958 3.4112C3.95042 3.68336 3.49205 4.29157 3.21045 5.22717L3.54874 5.32899ZM4.70577 19.8057C2.29278 13.3729 1.90047 9.34232 3.54298 5.34522L3.21621 5.21094C1.52311 9.33115 1.95054 13.4664 4.37499 19.9297L4.70577 19.8057ZM6.16574 30.2586C5.31898 28.5926 4.81835 27.2005 4.59714 25.6303C4.37553 24.0573 4.43292 22.2957 4.71581 19.8883L4.36494 19.8471C4.08071 22.2659 4.01947 24.0624 4.24731 25.6796C4.47555 27.2997 4.99243 28.7299 5.8508 30.4187L6.16574 30.2586ZM7.21786 40.3939C6.36426 38.1246 5.84036 36.431 5.66077 34.9015C5.48192 33.3783 5.64392 32.0105 6.17605 30.3939L5.84048 30.2834C5.29449 31.9422 5.12427 33.3618 5.3099 34.9427C5.4948 36.5175 6.03208 38.245 6.88719 40.5183L7.21786 40.3939ZM4.49088 30.1366C4.17867 32.3984 4.20028 34.0959 4.59529 35.6865C4.9899 37.2756 5.75387 38.7441 6.90349 40.551L7.20156 40.3613C6.05876 38.5652 5.31898 37.1349 4.93816 35.6014C4.55774 34.0695 4.53223 32.4207 4.84085 30.1849L4.49088 30.1366ZM2.852 20.2242C2.67586 22.221 2.66071 23.777 2.90559 25.3099C3.15054 26.8432 3.65416 28.3441 4.5048 30.2333L4.82693 30.0882C3.98364 28.2153 3.49275 26.7458 3.25445 25.2541C3.01609 23.7621 3.02896 22.2386 3.20392 20.2553L2.852 20.2242ZM2.59036 2.98389C1.41564 5.24985 0.870515 7.36568 0.928126 10.027C0.985558 12.6801 1.64203 15.8709 2.85766 20.2866L3.19827 20.1929C1.98371 15.781 1.33775 12.6259 1.28133 10.0194C1.22508 7.42111 1.75466 5.3635 2.90401 3.14649L2.59036 2.98389ZM6.06693 1.29747C5.30965 1.30972 4.70803 1.3662 4.16121 1.60533C3.61083 1.84601 3.13495 2.26287 2.60654 2.95833L2.88784 3.17206C3.39602 2.50322 3.82781 2.13672 4.30276 1.92902C4.78128 1.71976 5.32267 1.66284 6.07265 1.65071L6.06693 1.29747ZM15.8525 8.9836C12.993 5.88795 10.5416 3.23191 6.14041 1.31218L5.99917 1.636C10.3255 3.52307 12.7329 6.12708 15.593 9.22331L15.8525 8.9836ZM15.8476 8.97855L15.8476 8.97855L15.5978 9.22836L15.5978 9.22837L15.8476 8.97855ZM15.8569 8.98851L15.8569 8.9885L15.5886 9.21842L15.5886 9.21842L15.8569 8.98851ZM15.8697 9.00549L15.8697 9.00548L15.5758 9.20145L15.5758 9.20146L15.8697 9.00549ZM18.7363 12.0189C17.6855 10.9679 16.7491 9.95423 15.8525 8.98362L15.593 9.22333C16.4891 10.1934 17.43 11.212 18.4865 12.2687L18.7363 12.0189ZM39.3526 11.5086C35.003 10.0306 31.6783 9.31703 28.497 9.39187C25.3139 9.46676 22.2897 10.3306 18.5402 11.9822L18.6826 12.3055C22.4096 10.6638 25.386 9.81845 28.5053 9.74506C31.6264 9.67164 34.9057 10.3707 39.239 11.8431L39.3526 11.5086ZM50.8153 1.1795C45.9501 3.8992 43.3949 6.19248 39.1571 11.5665L39.4345 11.7853C43.6505 6.43895 46.1718 4.18002 50.9877 1.48788L50.8153 1.1795ZM55.3092 2.45576C54.8384 1.71404 54.3634 1.2171 53.6643 1.00132C52.976 0.788875 52.1022 0.859613 50.8597 1.16206L50.9433 1.50532C52.1755 1.20537 52.9689 1.1564 53.5601 1.33889C54.1405 1.51803 54.5574 1.93066 55.0109 2.64508L55.3092 2.45576ZM54.423 24.1247C56.1054 19.2257 57.0337 15.5668 57.1884 12.2553C57.3434 8.93845 56.722 5.98116 55.3241 2.48484L54.996 2.616C56.3802 6.0778 56.9876 8.98417 56.8355 12.2388C56.6832 15.4989 55.7684 19.1194 54.0889 24.01L54.423 24.1247ZM53.9403 29.3553C53.7222 27.273 53.8023 26.1332 54.4247 24.1195L54.0872 24.0152C53.4494 26.0787 53.3663 27.2669 53.5889 29.3921L53.9403 29.3553ZM49.5218 20.1147C49.7478 20.8666 50.0091 21.4801 50.3043 21.9426C50.5987 22.4038 50.9356 22.7285 51.3179 22.8788C51.7075 23.0319 52.1188 22.9941 52.5333 22.7798C52.9424 22.5684 53.3571 22.1848 53.7758 21.6392L53.4955 21.4241C53.0932 21.9484 52.7161 22.2878 52.3711 22.466C52.0317 22.6414 51.7269 22.66 51.4472 22.55C51.1602 22.4372 50.8746 22.1794 50.6021 21.7525C50.3305 21.3269 50.0807 20.7467 49.8601 20.013L49.5218 20.1147ZM46.647 19.5042C47.6257 19.3403 48.2532 19.3036 48.6843 19.4055C48.8945 19.4552 49.0545 19.5372 49.1858 19.6527C49.3184 19.7693 49.4297 19.9273 49.5316 20.1401L49.8503 19.9876C49.7349 19.7465 49.5979 19.5447 49.4192 19.3875C49.2391 19.229 49.0248 19.1229 48.7655 19.0617C48.2577 18.9417 47.5659 18.9921 46.5886 19.1558L46.647 19.5042ZM42.3448 12.1192C40.8338 14.2818 41.0833 16.7284 42.1241 18.3319C42.6442 19.1331 43.3682 19.7336 44.1807 19.9758C44.9992 20.2199 45.8923 20.0951 46.7238 19.4713L46.5118 19.1887C45.768 19.7466 44.9908 19.8487 44.2816 19.6373C43.5663 19.424 42.9053 18.8865 42.4205 18.1396C41.4516 16.6469 41.2123 14.3569 42.6344 12.3216L42.3448 12.1192ZM51.5806 3.07413C49.5569 4.14596 48.043 5.20952 46.635 6.60863C45.229 8.00564 43.9337 9.73221 42.3426 12.1225L42.6367 12.3183C44.224 9.93379 45.5036 8.23084 46.884 6.85924C48.2622 5.48975 49.746 4.44563 51.746 3.38633L51.5806 3.07413ZM54.0005 3.85684C53.689 3.34747 53.3859 3.01411 52.9884 2.88657C52.5927 2.75957 52.1493 2.85168 51.5993 3.0656L51.7273 3.39486C52.2651 3.1857 52.6082 3.13559 52.8805 3.22295C53.151 3.30976 53.3971 3.54733 53.6991 4.04115L54.0005 3.85684ZM53.8072 21.5736C54.7798 17.5933 55.2966 14.6628 55.3373 11.9814C55.378 9.29645 54.9412 6.86999 54.0185 3.89664L53.6811 4.00134C54.5962 6.95011 55.024 9.33841 54.984 11.976C54.944 14.6171 54.4348 17.5168 53.464 21.4897L53.8072 21.5736ZM43.6719 30.8946C43.6899 30.762 43.6958 30.6471 43.6854 30.5557C43.6802 30.51 43.6701 30.4617 43.6498 30.4174C43.6293 30.3728 43.5926 30.3202 43.5289 30.2894C43.3954 30.2247 43.2741 30.3061 43.2198 30.3506C43.1517 30.4065 43.0824 30.49 43.0133 30.5901L43.3041 30.7908C43.3343 30.7471 43.3615 30.7114 43.3857 30.6831C43.4101 30.6545 43.4295 30.6355 43.4437 30.6239C43.4591 30.6113 43.4621 30.6124 43.4534 30.6152C43.4482 30.6169 43.4378 30.6195 43.4233 30.6192C43.4082 30.6188 43.3914 30.6153 43.3749 30.6073C43.3414 30.5911 43.3297 30.5671 43.3287 30.5648C43.3278 30.5629 43.3316 30.5709 43.3344 30.5956C43.3371 30.619 43.3382 30.6515 43.3364 30.6945C43.3345 30.7371 43.3299 30.7878 43.3218 30.847L43.6719 30.8946ZM35.4545 35.2065C37.602 36.0154 39.2108 36.0465 40.5164 35.2943C41.8098 34.5491 42.7613 33.0582 43.6595 30.9398L43.3342 30.8018C42.4403 32.9101 41.5263 34.3047 40.34 34.9882C39.1659 35.6646 37.6808 35.6675 35.579 34.8759L35.4545 35.2065ZM35.6555 34.5755C35.5316 34.5487 35.4212 34.5363 35.3318 34.5419C35.2875 34.5447 35.2392 34.5525 35.1944 34.5713C35.1499 34.59 35.0917 34.6273 35.0612 34.6983C35.0296 34.7719 35.0444 34.8424 35.0666 34.8909C35.0879 34.9376 35.1208 34.9766 35.1532 35.008C35.2187 35.0713 35.3148 35.1348 35.4348 35.1976L35.5987 34.8847C35.5464 34.8573 35.5039 34.8321 35.4702 34.8095C35.4362 34.7867 35.4133 34.768 35.3989 34.7541C35.3919 34.7473 35.388 34.7427 35.3861 34.7403C35.3842 34.7377 35.3856 34.7391 35.388 34.7443C35.3904 34.7496 35.3948 34.7611 35.3961 34.7779C35.3974 34.7956 35.3949 34.8166 35.3858 34.8377C35.3674 34.8806 35.3356 34.8952 35.3311 34.897C35.328 34.8983 35.328 34.8979 35.3324 34.8971C35.3367 34.8962 35.3438 34.8952 35.3541 34.8945C35.375 34.8932 35.4045 34.8937 35.4435 34.8979C35.4821 34.9019 35.5279 34.9093 35.5809 34.9208L35.6555 34.5755ZM42.9966 30.6202C42.1203 32.6426 41.258 33.8901 40.1483 34.5076C39.0455 35.1213 37.6563 35.1348 35.6658 34.578L35.5706 34.9182C37.5938 35.4842 39.0958 35.4976 40.3201 34.8163C41.5377 34.1387 42.4388 32.796 43.3208 30.7607L42.9966 30.6202ZM41.2732 31.9193C41.3312 31.8618 41.3674 31.8339 41.3852 31.8235C41.3948 31.8179 41.3874 31.8244 41.3674 31.8271C41.356 31.8286 41.3376 31.8294 41.3156 31.8235C41.2923 31.8174 41.2701 31.8052 41.2518 31.7877C41.2174 31.7547 41.2131 31.7194 41.2127 31.7161C41.212 31.7103 41.2132 31.7131 41.2109 31.7291C41.2065 31.7604 41.1933 31.8121 41.1671 31.8874L41.5008 32.0035C41.5298 31.9201 41.5515 31.8435 41.5607 31.7789C41.5652 31.7469 41.5679 31.7099 41.5633 31.6727C41.559 31.638 41.5455 31.5798 41.4963 31.5326C41.4401 31.4788 41.3709 31.47 41.3195 31.4771C41.2735 31.4833 41.2344 31.5024 41.2066 31.5187C41.1497 31.5521 41.0881 31.6053 41.0244 31.6686L41.2732 31.9193ZM36.5986 33.5875C37.7911 34.128 38.6777 34.1972 39.4252 33.8553C40.1588 33.5196 40.717 32.8039 41.2979 31.8886L40.9997 31.6993C40.4183 32.6152 39.9077 33.246 39.2782 33.534C38.6625 33.8157 37.8916 33.7857 36.7445 33.2657L36.5986 33.5875ZM36.6678 33.4811C36.6065 33.4407 36.5813 33.4129 36.5743 33.403C36.5711 33.3983 36.5778 33.4059 36.5811 33.4249C36.585 33.447 36.5832 33.4814 36.5616 33.5147C36.5415 33.5457 36.5158 33.5578 36.505 33.5617C36.4945 33.5654 36.4911 33.5641 36.4993 33.5642C36.5157 33.5644 36.552 33.5697 36.6078 33.5914L36.7354 33.2619C36.6548 33.2307 36.5752 33.2117 36.5032 33.2109C36.4441 33.2103 36.3302 33.2223 36.2652 33.3224C36.1916 33.4359 36.2468 33.551 36.2845 33.6051C36.3276 33.6669 36.3941 33.7238 36.4733 33.7761L36.6678 33.4811ZM41.173 31.8726C40.6131 33.1093 40.0153 33.848 39.3177 34.1182C38.6312 34.3841 37.7857 34.2181 36.6678 33.4811L36.4733 33.7761C37.6277 34.5371 38.6001 34.7751 39.4453 34.4477C40.2793 34.1246 40.927 33.2726 41.4949 32.0183L41.173 31.8726ZM34.9383 35.4397C35.1052 33.0525 35.7286 31.6631 37.1113 30.9165C37.8128 30.5377 38.7244 30.3155 39.9031 30.2276C41.0812 30.1396 42.5153 30.1865 44.2547 30.3377L44.2853 29.9858C42.5381 29.8339 41.0825 29.7853 39.8768 29.8753C38.6716 29.9652 37.7052 30.1942 36.9434 30.6056C35.3997 31.4392 34.7557 32.9858 34.5858 35.4151L34.9383 35.4397ZM34.3761 35.4666C34.3971 35.5589 34.425 35.6395 34.461 35.7014C34.4789 35.7322 34.5031 35.7658 34.536 35.7932C34.569 35.8208 34.6219 35.8509 34.6902 35.8483C34.7612 35.8456 34.8137 35.8092 34.846 35.7731C34.8766 35.7389 34.8948 35.6996 34.9063 35.6664C34.9294 35.5995 34.9387 35.5169 34.9387 35.4274H34.5854C34.5854 35.4975 34.5775 35.5363 34.5723 35.5512C34.5697 35.5589 34.571 35.5507 34.5828 35.5375C34.5963 35.5225 34.628 35.4971 34.6769 35.4953C34.7233 35.4935 34.753 35.5142 34.7625 35.5221C34.7718 35.5299 34.772 35.5334 34.7663 35.5237C34.7552 35.5046 34.7374 35.4621 34.7206 35.3882L34.3761 35.4666ZM44.4895 29.7111C40.8938 28.6901 38.1748 28.7442 36.4405 29.7645C34.6851 30.7972 33.9971 32.7799 34.3734 35.452L34.7232 35.4028C34.358 32.8093 35.0343 31.0016 36.6196 30.069C38.2261 29.1239 40.8244 29.0377 44.393 30.051L44.4895 29.7111ZM44.2436 30.3364C44.4038 30.3606 44.539 30.3653 44.6447 30.3516C44.6973 30.3447 44.7497 30.3324 44.7961 30.3109C44.8406 30.2903 44.8978 30.2526 44.9299 30.185C44.966 30.1091 44.9536 30.0323 44.9238 29.975C44.8967 29.923 44.8549 29.8841 44.8161 29.8556C44.7374 29.7978 44.6248 29.7496 44.4895 29.7111L44.393 30.051C44.5091 30.084 44.5764 30.1179 44.6069 30.1404C44.6228 30.152 44.618 30.1527 44.6105 30.1383C44.6061 30.1299 44.6002 30.1151 44.599 30.0949C44.5977 30.0738 44.6018 30.0523 44.6109 30.0333C44.6279 29.9975 44.6527 29.988 44.6476 29.9904C44.6445 29.9918 44.6302 29.9972 44.5991 30.0012C44.5376 30.0093 44.4378 30.0084 44.2964 29.9871L44.2436 30.3364Z" fill="#79A7EC"/>
<path d="M29.1438 49.7942C29.0595 49.5053 29.0409 49.2725 29.0395 48.7793C28.9522 48.6695 28.8976 48.6605 28.7855 48.7793C28.8024 49.1801 28.7908 49.4099 28.6887 49.8383C27.212 51.5059 24.8231 51.8431 22.5491 50.7292C24.8466 52.2985 26.7342 51.9696 29.0395 50.9035C31.0831 52.2237 33.6592 51.9784 35.3706 50.7292C33.1849 51.8803 30.5135 51.5718 29.1438 49.7942Z" fill="#3B6DB8" stroke="#79A7EC" stroke-width="0.353286"/>
<path d="M32.3431 45.2524C33.0805 44.7559 32.3431 43.0939 32.3431 38.415C31.9895 36.9966 32.3431 42.4414 32.0727 44.5722C31.3207 44.1104 30.803 44.0841 29.7463 44.3591C29.1078 44.5362 28.7023 44.533 27.9007 44.3591C27.004 44.0784 26.5115 44.1449 25.6472 44.5722C25.7902 42.2374 25.6271 37.3841 25.4493 38.3295C25.6472 42.1302 24.5671 44.5722 25.4493 45.4401C26.7102 46.2419 27.8316 46.6655 27.6723 47.6022C28.0503 48.0426 28.2583 48.2815 28.9466 48.5069C29.5047 48.3278 29.7484 48.0837 30.1452 47.5694C29.8188 46.6852 31.4269 46.4004 32.3431 45.2524Z" fill="#3B6DB8" stroke="#79A7EC" stroke-width="0.353286"/>
<path d="M79.1425 38.4581C79.6705 38.4581 79.9345 38.6981 79.9345 39.1781C79.9345 39.6581 79.6705 39.8981 79.1425 39.8981H69.7825C69.2545 39.8981 68.9905 39.6341 68.9905 39.1061V22.4501C68.9905 21.9221 69.2545 21.6581 69.7825 21.6581H79.1425C79.6705 21.6581 79.9345 21.8981 79.9345 22.3781C79.9345 22.8581 79.6705 23.0981 79.1425 23.0981H72.0625V30.2021H78.4945C79.0225 30.2021 79.2865 30.4421 79.2865 30.9221C79.2865 31.4021 79.0225 31.6421 78.4945 31.6421H72.0625V38.4581H79.1425ZM82.753 22.4741C82.753 22.2501 82.857 22.0581 83.065 21.8981C83.289 21.7381 83.553 21.6581 83.857 21.6581H84.649C84.953 21.6581 85.209 21.7381 85.417 21.8981C85.625 22.0581 85.729 22.2501 85.729 22.4741V39.3221C85.729 39.5461 85.625 39.7381 85.417 39.8981C85.209 40.0581 84.953 40.1381 84.649 40.1381H83.857C83.553 40.1381 83.289 40.0581 83.065 39.8981C82.857 39.7381 82.753 39.5461 82.753 39.3221V22.4741ZM92.036 24.6101C92.036 24.8341 91.956 25.0261 91.796 25.1861C91.636 25.3461 91.444 25.4261 91.22 25.4261H89.78C89.556 25.4261 89.364 25.3461 89.204 25.1861C89.044 25.0261 88.964 24.8341 88.964 24.6101V23.1941C88.964 22.9701 89.044 22.7781 89.204 22.6181C89.364 22.4581 89.556 22.3781 89.78 22.3781H91.22C91.444 22.3781 91.636 22.4581 91.796 22.6181C91.956 22.7781 92.036 22.9701 92.036 23.1941V24.6101ZM92.036 39.0821C92.036 39.3061 91.956 39.4981 91.796 39.6581C91.636 39.8181 91.444 39.8981 91.22 39.8981H89.78C89.556 39.8981 89.364 39.8181 89.204 39.6581C89.044 39.4981 88.964 39.3061 88.964 39.0821V28.4741C88.964 28.2501 89.044 28.0581 89.204 27.8981C89.364 27.7381 89.556 27.6581 89.78 27.6581H91.22C91.444 27.6581 91.636 27.7381 91.796 27.8981C91.956 28.0581 92.036 28.2501 92.036 28.4741V39.0821ZM106.012 39.0821C106.012 39.3061 105.932 39.4981 105.772 39.6581C105.612 39.8181 105.42 39.8981 105.196 39.8981H103.996C103.804 39.8981 103.628 39.8421 103.468 39.7301C103.324 39.6021 103.236 39.4421 103.204 39.2501C102.692 39.5221 102.116 39.7381 101.476 39.8981C100.852 40.0581 100.172 40.1381 99.4362 40.1381C98.3002 40.1381 97.4042 39.9621 96.7482 39.6101C96.1082 39.2581 95.6362 38.6501 95.3322 37.7861C95.0442 36.9221 94.8602 35.7381 94.7802 34.2341C94.7002 32.7301 94.6602 30.8261 94.6602 28.5221C94.6602 28.2661 94.7402 28.0581 94.9002 27.8981C95.0602 27.7381 95.2522 27.6581 95.4762 27.6581H96.6762C96.9002 27.6581 97.0922 27.7461 97.2522 27.9221C97.4122 28.0821 97.4922 28.2901 97.4922 28.5461C97.4922 30.3381 97.5162 31.8421 97.5642 33.0581C97.6282 34.2741 97.7082 35.2581 97.8042 36.0101C97.9162 36.7621 98.0522 37.3301 98.2122 37.7141C98.3722 38.0981 98.5482 38.3621 98.7402 38.5061C98.9482 38.6341 99.1802 38.6981 99.4362 38.6981C100.156 38.6981 100.796 38.5221 101.356 38.1701C101.916 37.8181 102.356 37.3381 102.676 36.7301C103.012 36.1061 103.18 35.3941 103.18 34.5941V28.4741C103.18 28.2501 103.26 28.0581 103.42 27.8981C103.58 27.7381 103.772 27.6581 103.996 27.6581H105.196C105.42 27.6581 105.612 27.7381 105.772 27.8981C105.932 28.0581 106.012 28.2501 106.012 28.4741V39.0821ZM119.298 39.0821C119.298 39.3061 119.218 39.4981 119.058 39.6581C118.898 39.8181 118.706 39.8981 118.482 39.8981H117.282C117.026 39.8981 116.826 39.8261 116.682 39.6821C116.538 39.5221 116.466 39.3381 116.466 39.1301C116.034 39.4501 115.53 39.6981 114.954 39.8741C114.378 40.0501 113.73 40.1381 113.01 40.1381C111.874 40.1381 110.898 39.8741 110.082 39.3461C109.266 38.8021 108.642 38.0661 108.21 37.1381C107.794 36.1941 107.586 35.1141 107.586 33.8981C107.586 32.6661 107.826 31.5621 108.306 30.5861C108.786 29.6101 109.45 28.8421 110.298 28.2821C111.162 27.7061 112.17 27.4181 113.322 27.4181C113.962 27.4181 114.538 27.5141 115.05 27.7061C115.578 27.8981 116.05 28.1701 116.466 28.5221V22.4741C116.466 22.2501 116.546 22.0581 116.706 21.8981C116.866 21.7381 117.058 21.6581 117.282 21.6581H118.482C118.706 21.6581 118.898 21.7381 119.058 21.8981C119.218 22.0581 119.298 22.2501 119.298 22.4741V39.0821ZM113.322 28.8581C112.826 28.8581 112.354 29.0981 111.906 29.5781C111.474 30.0421 111.114 30.6581 110.826 31.4261C110.554 32.1941 110.418 33.0181 110.418 33.8981C110.418 34.7781 110.538 35.5861 110.778 36.3221C111.018 37.0421 111.338 37.6181 111.738 38.0501C112.138 38.4821 112.562 38.6981 113.01 38.6981C114.018 38.6981 114.802 38.2501 115.362 37.3541C115.922 36.4421 116.202 35.2501 116.202 33.7781C116.202 32.9301 116.066 32.1381 115.794 31.4021C115.522 30.6501 115.162 30.0421 114.714 29.5781C114.282 29.0981 113.818 28.8581 113.322 28.8581ZM141.061 36.4181C141.189 35.9701 141.509 35.7461 142.021 35.7461H143.341C143.549 35.7461 143.709 35.8261 143.821 35.9861C143.949 36.1461 144.013 36.3221 144.013 36.5141C144.013 36.6741 143.981 36.8101 143.917 36.9221C143.629 37.5621 143.189 38.1301 142.597 38.6261C142.005 39.1061 141.333 39.4821 140.581 39.7541C139.829 40.0101 139.069 40.1381 138.301 40.1381C136.909 40.1381 135.645 39.7781 134.509 39.0581C133.373 38.3221 132.469 37.2981 131.797 35.9861C131.141 34.6741 130.813 33.1461 130.813 31.4021C130.813 30.0741 130.997 28.8101 131.365 27.6101C131.749 26.4101 132.277 25.3461 132.949 24.4181C133.621 23.4901 134.389 22.7621 135.253 22.2341C136.133 21.6901 137.061 21.4181 138.037 21.4181C138.693 21.4181 139.365 21.5621 140.053 21.8501C140.741 22.1221 141.389 22.4981 141.997 22.9781C142.621 23.4421 143.157 23.9701 143.605 24.5621C144.069 25.1541 144.389 25.7621 144.565 26.3861C144.581 26.4181 144.589 26.4581 144.589 26.5061C144.589 26.5541 144.589 26.5941 144.589 26.6261C144.589 26.8341 144.525 27.0181 144.397 27.1781C144.269 27.3221 144.093 27.3941 143.869 27.3941H142.381C141.933 27.3941 141.645 27.1381 141.517 26.6261C141.373 26.0341 141.133 25.4501 140.797 24.8741C140.461 24.2981 140.061 23.8181 139.597 23.4341C139.133 23.0501 138.613 22.8581 138.037 22.8581C137.397 22.8581 136.813 23.1141 136.285 23.6261C135.773 24.1221 135.341 24.7941 134.989 25.6421C134.637 26.4741 134.365 27.3941 134.173 28.4021C133.981 29.3941 133.885 30.3941 133.885 31.4021C133.885 32.4421 134.013 33.4101 134.269 34.3061C134.525 35.1861 134.869 35.9541 135.301 36.6101C135.733 37.2661 136.205 37.7781 136.717 38.1461C137.245 38.5141 137.773 38.6981 138.301 38.6981C138.605 38.6981 138.933 38.6341 139.285 38.5061C139.653 38.3621 139.997 38.1301 140.317 37.8101C140.637 37.4741 140.885 37.0101 141.061 36.4181ZM155.578 38.2901C155.082 38.7861 154.45 39.2181 153.682 39.5861C152.93 39.9541 152.106 40.1381 151.21 40.1381C149.226 40.1381 147.682 39.5701 146.578 38.4341C145.49 37.2821 144.946 35.7381 144.946 33.8021C144.946 32.5861 145.194 31.4981 145.69 30.5381C146.202 29.5781 146.898 28.8181 147.778 28.2581C148.674 27.6981 149.706 27.4181 150.874 27.4181C152.074 27.4181 153.122 27.6741 154.018 28.1861C154.93 28.6981 155.642 29.4021 156.154 30.2981C156.666 31.1941 156.922 32.2261 156.922 33.3941C156.922 33.6181 156.842 33.8021 156.682 33.9461C156.538 34.0901 156.354 34.1621 156.13 34.1621H147.538C147.602 35.5861 147.978 36.6981 148.666 37.4981C149.354 38.2981 150.202 38.6981 151.21 38.6981C151.722 38.6981 152.13 38.5621 152.434 38.2901C152.738 38.0181 153.042 37.6341 153.346 37.1381C153.522 36.7861 153.794 36.6501 154.162 36.7301L155.05 36.9461C155.546 37.0741 155.794 37.3541 155.794 37.7861C155.794 37.9781 155.722 38.1461 155.578 38.2901ZM150.874 28.8581C150.41 28.8581 149.954 29.0341 149.506 29.3861C149.058 29.7221 148.666 30.1781 148.33 30.7541C147.994 31.3301 147.762 31.9861 147.634 32.7221H153.826C153.73 31.5861 153.418 30.6581 152.89 29.9381C152.362 29.2181 151.69 28.8581 150.874 28.8581ZM158.073 37.4021C158.025 37.3061 158.001 37.2181 158.001 37.1381C158.001 36.9461 158.089 36.7861 158.265 36.6581C158.441 36.5141 158.641 36.4421 158.865 36.4421H160.257C160.641 36.4421 160.889 36.6661 161.001 37.1141C161.129 37.5781 161.425 37.9541 161.889 38.2421C162.353 38.5301 163.049 38.6741 163.977 38.6741C165.001 38.6741 165.705 38.4901 166.089 38.1221C166.489 37.7541 166.689 37.2261 166.689 36.5381C166.689 35.8341 166.425 35.2821 165.897 34.8821C165.369 34.4661 164.625 34.2741 163.665 34.3061C162.321 34.3381 161.249 34.2181 160.449 33.9461C159.665 33.6581 159.097 33.2661 158.745 32.7701C158.409 32.2741 158.241 31.7221 158.241 31.1141C158.241 29.9781 158.745 29.0821 159.753 28.4261C160.777 27.7541 162.217 27.4181 164.073 27.4181C166.137 27.4181 167.705 27.8581 168.777 28.7381C169.209 29.0901 169.425 29.4021 169.425 29.6741C169.425 29.8341 169.361 29.9541 169.233 30.0341L168.825 30.3461C168.665 30.4581 168.513 30.5141 168.369 30.5141C168.209 30.5141 168.081 30.4741 167.985 30.3941C167.297 29.8821 166.633 29.4981 165.993 29.2421C165.369 28.9861 164.729 28.8581 164.073 28.8581C163.177 28.8581 162.489 29.0741 162.009 29.5061C161.545 29.9221 161.313 30.4581 161.313 31.1141C161.313 31.7381 161.489 32.1861 161.841 32.4581C162.209 32.7301 162.817 32.8661 163.665 32.8661C164.753 32.8661 165.761 33.0101 166.689 33.2981C167.617 33.5861 168.361 34.0101 168.921 34.5701C169.481 35.1141 169.761 35.7701 169.761 36.5381C169.761 37.2261 169.513 37.8421 169.017 38.3861C168.521 38.9301 167.833 39.3541 166.953 39.6581C166.089 39.9621 165.097 40.1141 163.977 40.1141C162.521 40.1141 161.257 39.8501 160.185 39.3221C159.129 38.7941 158.425 38.1541 158.073 37.4021ZM175.876 40.1381C174.852 40.1381 173.98 39.8741 173.26 39.3461C172.556 38.8021 172.012 38.0581 171.628 37.1141C171.26 36.1701 171.076 35.0901 171.076 33.8741C171.076 32.6741 171.292 31.5861 171.724 30.6101C172.172 29.6341 172.788 28.8581 173.572 28.2821C174.356 27.7061 175.276 27.4181 176.332 27.4181C177.708 27.4181 178.852 27.7141 179.764 28.3061C180.676 28.8821 181.356 29.6341 181.804 30.5621C182.252 31.4901 182.476 32.4741 182.476 33.5141C182.476 33.5781 182.476 33.6421 182.476 33.7061C182.588 34.7781 182.716 35.7541 182.86 36.6341C183.004 37.4981 183.148 38.2181 183.292 38.7941C183.308 38.8421 183.316 38.9061 183.316 38.9861C183.316 39.4661 183.068 39.7461 182.572 39.8261L181.204 39.9941C180.756 40.0421 180.476 39.8581 180.364 39.4421C180.3 39.1861 180.244 38.9221 180.196 38.6501C179.652 39.1141 179.02 39.4821 178.3 39.7541C177.58 40.0101 176.772 40.1381 175.876 40.1381ZM175.876 38.6981C176.66 38.6981 177.308 38.4421 177.82 37.9301C178.332 37.4021 178.716 36.7381 178.972 35.9381C179.244 35.1381 179.38 34.3141 179.38 33.4661C179.38 33.4501 179.38 33.4181 179.38 33.3701C179.364 33.2901 179.356 33.2021 179.356 33.1061C179.356 33.0261 179.356 32.9541 179.356 32.8901C179.308 32.1861 179.164 31.5301 178.924 30.9221C178.684 30.2981 178.348 29.8021 177.916 29.4341C177.484 29.0501 176.956 28.8581 176.332 28.8581C175.996 28.8581 175.66 29.1061 175.324 29.6021C174.988 30.0821 174.708 30.7061 174.484 31.4741C174.26 32.2421 174.148 33.0421 174.148 33.8741C174.148 34.7061 174.236 35.4901 174.412 36.2261C174.588 36.9621 174.812 37.5621 175.084 38.0261C175.356 38.4741 175.62 38.6981 175.876 38.6981ZM193.604 28.1861C193.828 28.3461 194.004 28.5141 194.132 28.6901C194.276 28.8501 194.348 29.0021 194.348 29.1461C194.348 29.2581 194.292 29.3621 194.18 29.4581L193.748 29.7701C193.588 29.8821 193.436 29.9381 193.292 29.9381C193.148 29.9381 193.028 29.8901 192.932 29.7941C192.516 29.4421 192.164 29.2101 191.876 29.0981C191.588 28.9701 191.292 28.9061 190.988 28.9061C190.46 28.9061 189.948 29.1541 189.452 29.6501C188.972 30.1461 188.58 30.8021 188.276 31.6181C187.972 32.4341 187.82 33.3221 187.82 34.2821V39.1061C187.82 39.6341 187.556 39.8981 187.028 39.8981H185.804C185.58 39.8981 185.388 39.8181 185.228 39.6581C185.068 39.4981 184.988 39.3061 184.988 39.0821V28.4501C184.988 27.9221 185.252 27.6581 185.78 27.6581H187.028C187.556 27.6581 187.82 27.8981 187.82 28.3781C188.268 28.0901 188.756 27.8661 189.284 27.7061C189.812 27.5461 190.38 27.4661 190.988 27.4661C191.484 27.4661 191.956 27.5221 192.404 27.6341C192.852 27.7301 193.252 27.9141 193.604 28.1861Z" fill="#FAFAFA"/>
<defs>
<filter id="filter0_b" x="0.977725" y="43.9639" width="23.1226" height="15.7199" filterUnits="userSpaceOnUse" color-interpolation-filters="sRGB">
<feFlood flood-opacity="0" result="BackgroundImageFix"/>
<feGaussianBlur in="BackgroundImage" stdDeviation="0.706572"/>
<feComposite in2="SourceAlpha" operator="in" result="effect1_backgroundBlur"/>
<feBlend mode="normal" in="SourceGraphic" in2="effect1_backgroundBlur" result="shape"/>
</filter>
<filter id="filter1_b" x="34.1623" y="43.9639" width="23.1226" height="15.7199" filterUnits="userSpaceOnUse" color-interpolation-filters="sRGB">
<feFlood flood-opacity="0" result="BackgroundImageFix"/>
<feGaussianBlur in="BackgroundImage" stdDeviation="0.706572"/>
<feComposite in2="SourceAlpha" operator="in" result="effect1_backgroundBlur"/>
<feBlend mode="normal" in="SourceGraphic" in2="effect1_backgroundBlur" result="shape"/>
</filter>
</defs>
</svg>
