<svg width="167" height="101" viewBox="0 0 167 101" fill="none" xmlns="http://www.w3.org/2000/svg">
<path d="M37.5338 68.5065C36.8138 66.5385 35.9258 64.6425 34.8698 62.8185C33.8138 60.9465 32.7098 59.1225 31.5578 57.3465C30.4058 55.5705 29.2298 53.8185 28.0298 52.0905C26.8298 50.3145 25.7258 48.5385 24.7178 46.7625V46.6905H24.7898H25.0778C27.3818 46.5465 29.2778 45.8985 30.7658 44.7465C32.3018 43.5945 33.5258 42.1545 34.4378 40.4265C35.9258 37.9305 36.6218 35.3625 36.5258 32.7225C36.4778 30.0345 35.8298 27.5865 34.5818 25.3785C33.3338 23.1705 31.5818 21.3225 29.3258 19.8345C27.0698 18.3465 24.5258 17.5305 21.6938 17.3865C18.1898 17.0025 14.8298 16.9785 11.6138 17.3145C8.39784 17.6505 5.44584 18.0105 2.75784 18.3945C2.85384 19.0185 2.92584 20.2185 2.97384 21.9945C3.06984 23.7225 3.14184 25.8345 3.18984 28.3305C3.23784 30.7785 3.28584 33.4905 3.33384 36.4665C3.42984 39.3945 3.47784 42.3705 3.47784 45.3945C3.52584 48.3705 3.54984 51.2745 3.54984 54.1065C3.54984 56.8905 3.54984 59.3625 3.54984 61.5225C3.54984 63.6825 3.52584 65.4345 3.47784 66.7785C3.42984 68.0745 3.35784 68.7225 3.26184 68.7225C3.50184 68.6745 4.12584 68.6745 5.13384 68.7225C6.18984 68.7705 7.36584 68.7705 8.66184 68.7225C9.95784 68.7225 11.2538 68.6745 12.5498 68.5785C13.8938 68.4825 14.9738 68.2665 15.7898 67.9305C15.7418 67.0185 15.6698 65.7945 15.5738 64.2585C15.4778 62.7225 15.3818 61.1145 15.2858 59.4345C15.2378 57.7065 15.2138 56.0505 15.2138 54.4665C15.2138 52.8345 15.2858 51.4665 15.4298 50.3625L15.5738 50.5785C16.5818 51.8265 17.5898 53.2665 18.5978 54.8985C19.6058 56.5305 20.5418 58.1865 21.4058 59.8665C22.2698 61.5465 23.0618 63.1545 23.7818 64.6905C24.5018 66.2265 25.1018 67.5465 25.5818 68.6505H25.6538C27.8138 68.7945 29.9258 68.8185 31.9898 68.7225C34.0538 68.5785 35.9258 68.5065 37.6058 68.5065H37.5338ZM13.2698 28.4745C14.9498 27.8025 16.6058 27.4425 18.2378 27.3945C19.8698 27.2985 21.2138 27.7305 22.2698 28.6905C22.9418 29.2185 23.4218 29.9385 23.7098 30.8505C23.9978 31.7145 24.0938 32.6025 23.9978 33.5145C23.9018 34.3785 23.5898 35.1945 23.0618 35.9625C22.5818 36.6825 21.8858 37.1385 20.9738 37.3305C19.8218 37.5225 18.5978 37.5945 17.3018 37.5465C16.0058 37.4985 14.8058 37.4265 13.7018 37.3305H13.6298C13.5338 36.8025 13.4618 36.1545 13.4138 35.3865C13.4138 34.6185 13.4138 33.8265 13.4138 33.0105C13.4138 32.1945 13.3898 31.4025 13.3418 30.6345C13.3418 29.8185 13.3178 29.0985 13.2698 28.4745ZM48.106 50.6505C48.586 50.7465 49.354 50.8185 50.41 50.8665C51.466 50.9145 52.642 50.9385 53.938 50.9385C55.282 50.9385 56.674 50.9145 58.114 50.8665C59.554 50.8185 60.898 50.7465 62.146 50.6505C63.442 50.5545 64.546 50.4585 65.458 50.3625C66.418 50.2665 67.066 50.1705 67.402 50.0745C67.546 48.0585 67.546 46.0665 67.402 44.0985C67.258 42.1305 66.826 40.3305 66.106 38.6985C65.434 37.0665 64.426 35.6745 63.082 34.5225C61.738 33.3705 59.962 32.6025 57.754 32.2185C56.026 31.7865 54.25 31.5945 52.426 31.6425C50.602 31.6905 48.874 31.9785 47.242 32.5065C45.61 32.9865 44.146 33.7305 42.85 34.7385C41.554 35.6985 40.594 36.8745 39.97 38.2665C39.394 39.8505 39.01 41.4825 38.818 43.1625C38.674 44.7945 38.53 46.4985 38.386 48.2745C38.29 50.2425 38.338 52.2105 38.53 54.1785C38.722 56.1465 39.082 58.0185 39.61 59.7945C40.138 61.5225 40.834 63.1305 41.698 64.6185C42.562 66.0585 43.642 67.2345 44.938 68.1465C46.09 68.8185 47.338 69.2505 48.682 69.4425C50.026 69.4425 51.49 69.4905 53.074 69.5865C54.706 69.6825 56.29 69.6825 57.826 69.5865C59.362 69.4905 60.778 69.2025 62.074 68.7225C63.37 68.2425 64.426 67.4265 65.242 66.2745C65.578 65.9865 65.842 65.4825 66.034 64.7625C66.274 63.9945 66.466 63.1065 66.61 62.0985C66.754 61.0425 66.874 59.9145 66.97 58.7145C67.066 57.5145 67.162 56.2905 67.258 55.0425C66.73 54.8985 66.058 54.8265 65.242 54.8265C64.426 54.7785 63.562 54.7785 62.65 54.8265C61.786 54.8745 60.946 54.9225 60.13 54.9705C59.314 54.9705 58.666 54.9465 58.186 54.8985C58.282 56.8665 57.97 58.3545 57.25 59.3625C56.578 60.3225 55.738 60.8985 54.73 61.0905C53.722 61.2825 52.69 61.1145 51.634 60.5865C50.578 60.0585 49.762 59.2425 49.186 58.1385C48.658 57.2745 48.346 56.3865 48.25 55.4745C48.202 54.5625 48.154 53.3865 48.106 51.9465V50.6505ZM56.818 39.4905C57.682 39.9225 58.354 40.5705 58.834 41.4345C59.362 42.2985 59.626 43.2105 59.626 44.1705C59.626 44.5545 59.626 44.8185 59.626 44.9625C59.626 45.0585 59.482 45.1305 59.194 45.1785C58.954 45.1785 58.522 45.1545 57.898 45.1065C57.274 45.0585 56.338 45.0345 55.09 45.0345C53.266 45.0345 51.874 45.0585 50.914 45.1065C50.002 45.1065 49.33 45.0825 48.898 45.0345C48.466 44.9385 48.226 44.7945 48.178 44.6025C48.178 44.3625 48.226 43.9785 48.322 43.4505C48.418 42.8265 48.562 42.2265 48.754 41.6505C48.994 41.0745 49.33 40.5705 49.762 40.1385C50.194 39.7065 50.77 39.3705 51.49 39.1305C52.21 38.8905 53.146 38.7705 54.298 38.7705C54.826 38.7705 55.282 38.8425 55.666 38.9865C56.05 39.0825 56.434 39.2505 56.818 39.4905ZM78.5862 51.6585C78.5862 51.1785 78.5862 50.7225 78.5862 50.2905C78.5862 49.8105 78.6342 49.3305 78.7302 48.8505C78.9222 47.7465 79.2582 46.7145 79.7382 45.7545C80.2662 44.7465 80.8902 43.8345 81.6102 43.0185C82.1862 42.5385 82.8342 42.2025 83.5542 42.0105C84.3222 41.7705 85.0902 41.6985 85.8582 41.7945C86.6262 41.8905 87.3222 42.1545 87.9462 42.5865C88.6182 42.9705 89.0982 43.5225 89.3862 44.2425C89.8662 46.0665 90.1302 47.9865 90.1782 50.0025C90.2742 51.9705 90.3222 53.9145 90.3222 55.8345C90.2742 56.2665 90.2022 56.7225 90.1062 57.2025C90.0582 57.6345 89.9622 58.0665 89.8182 58.4985C89.6742 58.8825 89.4822 59.2425 89.2422 59.5785C89.0022 59.8665 88.6662 60.0825 88.2342 60.2265C86.9862 60.6105 85.6422 60.7065 84.2022 60.5145C82.7622 60.2745 81.6102 59.6265 80.7462 58.5705C79.3062 56.8425 78.5862 54.7545 78.5862 52.3065V51.6585ZM91.0422 83.1225C91.6182 83.0745 92.2422 82.9785 92.9142 82.8345C93.5862 82.6905 94.2582 82.4265 94.9302 82.0425C95.6022 81.7065 96.2742 81.2265 96.9462 80.6025C97.6662 79.9785 98.3622 79.1385 99.0342 78.0825C99.5142 77.3145 99.7302 76.3545 99.6822 75.2025C99.6342 74.0985 99.6342 72.9705 99.6822 71.8185C99.9702 64.9065 100.09 58.1865 100.042 51.6585C100.042 45.0825 99.9462 38.7945 99.7542 32.7945C98.1222 32.7945 96.4902 32.7705 94.8582 32.7225C93.2262 32.6265 91.6182 32.6745 90.0342 32.8665C89.8902 33.1065 89.8182 33.4425 89.8182 33.8745C89.8662 34.2585 89.8902 34.6665 89.8902 35.0985C89.9382 35.4825 89.9382 35.8185 89.8902 36.1065C89.8902 36.3465 89.7942 36.4185 89.6022 36.3225C89.0262 34.9785 88.0662 34.0665 86.7222 33.5865C85.4262 33.0585 84.0102 32.8425 82.4742 32.9385C79.4022 33.1305 77.0502 34.0185 75.4182 35.6025C73.7862 37.1385 72.5862 39.0585 71.8182 41.3625C71.0982 43.6185 70.6902 46.0425 70.5942 48.6345C70.4982 51.2265 70.4502 53.6505 70.4502 55.9065C70.5462 57.3945 70.7382 58.8585 71.0262 60.2985C71.3142 61.6905 71.7942 63.0345 72.4662 64.3305C72.8982 65.2425 73.4502 65.9865 74.1222 66.5625C74.7942 67.1385 75.5382 67.5945 76.3542 67.9305C77.2182 68.2665 78.1062 68.5065 79.0182 68.6505C79.9782 68.7945 80.9142 68.8665 81.8262 68.8665C82.4982 68.8185 83.2182 68.7945 83.9862 68.7945C84.7542 68.7945 85.4982 68.7465 86.2182 68.6505C86.9862 68.5545 87.6822 68.3865 88.3062 68.1465C88.9782 67.9065 89.5542 67.5225 90.0342 66.9945C89.9382 67.8585 89.9382 68.6985 90.0342 69.5145C90.0822 69.8985 90.0822 70.3305 90.0342 70.8105C89.9862 71.3385 89.9382 71.8425 89.8902 72.3225C89.6022 73.6665 88.9782 74.6265 88.0182 75.2025C87.1062 75.7785 86.1462 76.0185 85.1382 75.9225C84.1782 75.8265 83.2902 75.3945 82.4742 74.6265C81.7062 73.9065 81.3222 72.9225 81.3222 71.6745C80.7462 71.5785 80.0262 71.4825 79.1622 71.3865C78.3462 71.3385 77.4822 71.2905 76.5702 71.2425C75.7062 71.2425 74.8662 71.2665 74.0502 71.3145C73.2342 71.4105 72.5862 71.5545 72.1062 71.7465C72.0582 72.1305 72.0342 72.5865 72.0342 73.1145C72.0822 73.6425 72.1542 74.1945 72.2502 74.7705C72.3942 75.3465 72.5382 75.8985 72.6822 76.4265C72.8742 77.0025 73.0662 77.4585 73.2582 77.7945C74.3622 79.4265 75.8022 80.7225 77.5782 81.6825C79.3542 82.6425 81.3702 83.1225 83.6262 83.1225C85.5942 83.1225 87.2022 83.1465 88.4502 83.1945C89.6982 83.2425 90.5622 83.2185 91.0422 83.1225Z" fill="#06792D"/>
<path d="M134.812 58.9305C131.548 59.0265 128.38 59.0025 125.308 58.8585C122.236 58.6665 119.116 58.5705 115.948 58.5705L115.876 58.4985C115.78 57.3465 115.684 55.9065 115.588 54.1785C115.54 52.4505 115.636 50.8905 115.876 49.4985C116.116 49.3065 116.572 49.1865 117.244 49.1385C117.916 49.0905 118.66 49.0665 119.476 49.0665C120.34 49.0665 121.228 49.0665 122.14 49.0665C123.052 49.0185 123.868 48.8985 124.588 48.7065C124.54 46.9305 124.564 45.2265 124.66 43.5945C124.756 41.9625 124.684 40.3305 124.444 38.6985V38.6265C122.956 38.5785 121.468 38.5545 119.98 38.5545C118.492 38.5545 117.028 38.5065 115.588 38.4105L115.516 38.3385C115.18 37.0425 115.084 35.6745 115.228 34.2345C115.42 32.7465 115.492 31.3065 115.444 29.9145L115.516 29.8425H115.732C117.316 29.6985 118.9 29.6265 120.484 29.6265C122.068 29.6265 123.652 29.6505 125.236 29.6985C126.82 29.6985 128.38 29.6745 129.916 29.6265C131.5 29.5305 133.06 29.3145 134.596 28.9785V28.9065C134.596 27.2265 134.644 25.5225 134.74 23.7945C134.884 22.0665 134.836 20.3625 134.596 18.6825C134.596 18.6345 134.116 18.5865 133.156 18.5385C132.196 18.4905 130.924 18.4665 129.34 18.4665C127.756 18.4665 125.932 18.4905 123.868 18.5385C121.804 18.5865 119.668 18.6345 117.46 18.6825C115.252 18.7305 113.044 18.8025 110.836 18.8985C108.676 18.9465 106.66 19.0185 104.788 19.1145C104.548 23.2425 104.404 27.3465 104.356 31.4265C104.308 35.5065 104.308 39.5865 104.356 43.6665C104.404 47.7465 104.476 51.8505 104.572 55.9785C104.668 60.0585 104.716 64.1865 104.716 68.3625C109.372 68.7465 114.22 68.8665 119.26 68.7225C124.348 68.5305 129.34 68.4585 134.236 68.5065C134.62 67.0665 134.836 65.5305 134.884 63.8985C134.932 62.2185 134.908 60.6105 134.812 59.0745V58.9305ZM165.804 32.7225C165.852 32.7225 165.876 32.6985 165.876 32.6505H165.804C164.844 32.6505 163.788 32.6505 162.636 32.6505C161.484 32.6505 160.356 32.6745 159.252 32.7225C158.196 32.7225 157.212 32.7465 156.3 32.7945C155.436 32.7945 154.788 32.8185 154.356 32.8665C154.116 33.5865 153.852 34.5225 153.564 35.6745C153.324 36.7785 153.036 37.9305 152.7 39.1305C152.412 40.3305 152.1 41.4825 151.764 42.5865C151.476 43.6425 151.188 44.5065 150.9 45.1785C150.66 44.5545 150.396 43.6905 150.108 42.5865C149.82 41.4825 149.508 40.3545 149.172 39.2025C148.884 38.0025 148.572 36.8505 148.236 35.7465C147.948 34.5945 147.708 33.6585 147.516 32.9385C147.468 32.8905 147.204 32.8425 146.724 32.7945C146.244 32.7465 145.668 32.7225 144.996 32.7225C144.372 32.7225 143.7 32.7225 142.98 32.7225C142.308 32.7225 141.756 32.7225 141.324 32.7225C140.124 32.7225 138.444 32.7945 136.284 32.9385C137.388 35.8185 138.516 38.7945 139.668 41.8665C140.868 44.9385 141.756 47.9625 142.332 50.9385C141.996 52.3305 141.588 53.7945 141.108 55.3305C140.628 56.8665 140.124 58.4025 139.596 59.9385C139.068 61.4265 138.54 62.9145 138.012 64.4025C137.532 65.8425 137.124 67.1865 136.788 68.4345C137.412 68.6745 138.228 68.7945 139.236 68.7945C140.292 68.8425 141.204 68.8665 141.972 68.8665C142.164 68.8665 142.5 68.8665 142.98 68.8665C143.508 68.8665 144.06 68.8425 144.636 68.7945C145.212 68.7945 145.74 68.7945 146.22 68.7945C146.7 68.7945 147.036 68.7945 147.228 68.7945C148.044 67.0665 148.668 65.1705 149.1 63.1065C149.532 60.9945 150.18 58.9785 151.044 57.0585V57.1305C151.428 57.9465 151.74 58.8585 151.98 59.8665C152.268 60.8265 152.532 61.8105 152.772 62.8185C153.012 63.8265 153.252 64.8345 153.492 65.8425C153.78 66.8025 154.116 67.6905 154.5 68.5065H154.572C154.716 68.5545 155.052 68.6025 155.58 68.6505C156.156 68.6505 156.732 68.6745 157.308 68.7225C157.932 68.7225 158.508 68.7225 159.036 68.7225C159.612 68.7225 159.996 68.7225 160.188 68.7225C160.764 68.7225 161.364 68.7225 161.988 68.7225C162.612 68.6745 163.188 68.6505 163.716 68.6505C163.956 68.6505 164.172 68.6505 164.364 68.6505C164.556 68.6505 164.772 68.6745 165.012 68.7225C164.34 65.9385 163.452 63.0105 162.348 59.9385C161.244 56.8665 160.428 53.8905 159.9 51.0105C160.428 47.8905 161.292 44.8185 162.492 41.7945C163.74 38.7225 164.844 35.6985 165.804 32.7225Z" fill="#C20A0A"/>
<path d="M38.31 95.9545C37.7207 95.9718 37.1487 95.9675 36.594 95.9415C36.0393 95.9068 35.476 95.8895 34.904 95.8895L34.891 95.8765C34.8737 95.6685 34.8563 95.4085 34.839 95.0965C34.8303 94.7845 34.8477 94.5028 34.891 94.2515C34.9343 94.2168 35.0167 94.1951 35.138 94.1865C35.2593 94.1778 35.3937 94.1735 35.541 94.1735C35.697 94.1735 35.8573 94.1735 36.022 94.1735C36.1867 94.1648 36.334 94.1431 36.464 94.1085C36.4553 93.7878 36.4597 93.4801 36.477 93.1855C36.4943 92.8908 36.4813 92.5961 36.438 92.3015V92.2885C36.1693 92.2798 35.9007 92.2755 35.632 92.2755C35.3633 92.2755 35.099 92.2668 34.839 92.2495L34.826 92.2365C34.7653 92.0025 34.748 91.7555 34.774 91.4955C34.8087 91.2268 34.8217 90.9668 34.813 90.7155L34.826 90.7025H34.865C35.151 90.6765 35.437 90.6635 35.723 90.6635C36.009 90.6635 36.295 90.6678 36.581 90.6765C36.867 90.6765 37.1487 90.6721 37.426 90.6635C37.712 90.6461 37.9937 90.6071 38.271 90.5465V90.5335C38.271 90.2301 38.2797 89.9225 38.297 89.6105C38.323 89.2985 38.3143 88.9908 38.271 88.6875C38.271 88.6788 38.1843 88.6701 38.011 88.6615C37.8377 88.6528 37.608 88.6485 37.322 88.6485C37.036 88.6485 36.7067 88.6528 36.334 88.6615C35.9613 88.6701 35.5757 88.6788 35.177 88.6875C34.7783 88.6961 34.3797 88.7091 33.981 88.7265C33.591 88.7351 33.227 88.7481 32.889 88.7655C32.8457 89.5108 32.8197 90.2518 32.811 90.9885C32.8023 91.7251 32.8023 92.4618 32.811 93.1985C32.8197 93.9351 32.8327 94.6761 32.85 95.4215C32.8673 96.1581 32.876 96.9035 32.876 97.6575C33.7167 97.7268 34.592 97.7485 35.502 97.7225C36.4207 97.6878 37.322 97.6748 38.206 97.6835C38.2753 97.4235 38.3143 97.1461 38.323 96.8515C38.3317 96.5481 38.3273 96.2578 38.31 95.9805V95.9545ZM43.9058 91.2225C43.9145 91.2225 43.9188 91.2181 43.9188 91.2095H43.9058C43.7325 91.2095 43.5418 91.2095 43.3338 91.2095C43.1258 91.2095 42.9221 91.2138 42.7228 91.2225C42.5321 91.2225 42.3545 91.2268 42.1898 91.2355C42.0338 91.2355 41.9168 91.2398 41.8388 91.2485C41.7955 91.3785 41.7478 91.5475 41.6958 91.7555C41.6525 91.9548 41.6005 92.1628 41.5398 92.3795C41.4878 92.5961 41.4315 92.8041 41.3708 93.0035C41.3188 93.1941 41.2668 93.3501 41.2148 93.4715C41.1715 93.3588 41.1238 93.2028 41.0718 93.0035C41.0198 92.8041 40.9635 92.6005 40.9028 92.3925C40.8508 92.1758 40.7945 91.9678 40.7338 91.7685C40.6818 91.5605 40.6385 91.3915 40.6038 91.2615C40.5951 91.2528 40.5475 91.2441 40.4608 91.2355C40.3741 91.2268 40.2701 91.2225 40.1488 91.2225C40.0361 91.2225 39.9148 91.2225 39.7848 91.2225C39.6635 91.2225 39.5638 91.2225 39.4858 91.2225C39.2691 91.2225 38.9658 91.2355 38.5758 91.2615C38.7751 91.7815 38.9788 92.3188 39.1868 92.8735C39.4035 93.4281 39.5638 93.9741 39.6678 94.5115C39.6071 94.7628 39.5335 95.0271 39.4468 95.3045C39.3601 95.5818 39.2691 95.8591 39.1738 96.1365C39.0785 96.4051 38.9831 96.6738 38.8878 96.9425C38.8011 97.2025 38.7275 97.4451 38.6668 97.6705C38.7795 97.7138 38.9268 97.7355 39.1088 97.7355C39.2995 97.7441 39.4641 97.7485 39.6028 97.7485C39.6375 97.7485 39.6981 97.7485 39.7848 97.7485C39.8801 97.7485 39.9798 97.7441 40.0838 97.7355C40.1878 97.7355 40.2831 97.7355 40.3698 97.7355C40.4565 97.7355 40.5171 97.7355 40.5518 97.7355C40.6991 97.4235 40.8118 97.0811 40.8898 96.7085C40.9678 96.3271 41.0848 95.9631 41.2408 95.6165V95.6295C41.3101 95.7768 41.3665 95.9415 41.4098 96.1235C41.4618 96.2968 41.5095 96.4745 41.5528 96.6565C41.5961 96.8385 41.6395 97.0205 41.6828 97.2025C41.7348 97.3758 41.7955 97.5361 41.8648 97.6835H41.8778C41.9038 97.6921 41.9645 97.7008 42.0598 97.7095C42.1638 97.7095 42.2678 97.7138 42.3718 97.7225C42.4845 97.7225 42.5885 97.7225 42.6838 97.7225C42.7878 97.7225 42.8571 97.7225 42.8918 97.7225C42.9958 97.7225 43.1041 97.7225 43.2168 97.7225C43.3295 97.7138 43.4335 97.7095 43.5288 97.7095C43.5721 97.7095 43.6111 97.7095 43.6458 97.7095C43.6805 97.7095 43.7195 97.7138 43.7628 97.7225C43.6415 97.2198 43.4811 96.6911 43.2818 96.1365C43.0825 95.5818 42.9351 95.0445 42.8398 94.5245C42.9351 93.9611 43.0911 93.4065 43.3078 92.8605C43.5331 92.3058 43.7325 91.7598 43.9058 91.2225ZM46.0909 100.218C46.0996 100.045 46.1039 99.9108 46.1039 99.8155C46.1126 99.7288 46.1169 99.6465 46.1169 99.5685C46.1256 99.4991 46.1299 99.4211 46.1299 99.3345C46.1386 99.2565 46.1429 99.1395 46.1429 98.9835C46.1429 98.8361 46.1429 98.6368 46.1429 98.3855C46.1429 98.1341 46.1386 97.8048 46.1299 97.3975C46.1473 97.4755 46.2426 97.5448 46.4159 97.6055C46.5893 97.6661 46.8016 97.7051 47.0529 97.7225C47.3043 97.7485 47.5686 97.7485 47.8459 97.7225C48.1319 97.7051 48.3919 97.6531 48.6259 97.5665C48.8166 97.4971 48.9769 97.3801 49.1069 97.2155C49.2456 97.0421 49.3539 96.8385 49.4319 96.6045C49.5186 96.3618 49.5793 96.0975 49.6139 95.8115C49.6573 95.5255 49.6789 95.2308 49.6789 94.9275C49.6616 94.4941 49.6313 94.0651 49.5879 93.6405C49.5446 93.2158 49.4493 92.8345 49.3019 92.4965C49.1633 92.1498 48.9509 91.8681 48.6649 91.6515C48.3789 91.4261 47.9889 91.2961 47.4949 91.2615C47.2523 91.2268 47.0226 91.2485 46.8059 91.3265C46.5893 91.3958 46.4159 91.5605 46.2859 91.8205C46.2599 91.8725 46.2339 91.8898 46.2079 91.8725C46.1906 91.8465 46.1733 91.8118 46.1559 91.7685C46.1559 91.6731 46.1516 91.5995 46.1429 91.5475C46.1429 91.4955 46.1429 91.4261 46.1429 91.3395C46.1429 91.2961 46.1386 91.2658 46.1299 91.2485C45.8699 91.2138 45.5796 91.2051 45.2589 91.2225C44.9383 91.2311 44.6436 91.2355 44.3749 91.2355C44.3576 91.8595 44.3489 92.5095 44.3489 93.1855C44.3576 93.8528 44.3663 94.5375 44.3749 95.2395C44.3923 95.9328 44.4096 96.6391 44.4269 97.3585C44.4443 98.0778 44.4529 98.7971 44.4529 99.5165V100.374C44.5916 100.4 44.7563 100.413 44.9469 100.413C45.1376 100.422 45.3153 100.422 45.4799 100.413C45.6533 100.413 45.7963 100.405 45.9089 100.387C46.0303 100.379 46.0909 100.37 46.0909 100.361V100.218ZM48.1059 95.3175C48.0626 95.6208 47.9326 95.8505 47.7159 96.0065C47.5079 96.1625 47.2263 96.2405 46.8709 96.2405C46.6889 96.2405 46.5416 96.2275 46.4289 96.2015C46.3249 96.1668 46.2469 96.0975 46.1949 95.9935C46.1429 95.8895 46.1083 95.7421 46.0909 95.5515C46.0823 95.3521 46.0779 95.0835 46.0779 94.7455C46.0779 94.4768 46.0823 94.2255 46.0909 93.9915C46.1083 93.7575 46.1473 93.5581 46.2079 93.3935C46.2773 93.2288 46.3726 93.0988 46.4939 93.0035C46.6153 92.9081 46.7886 92.8605 47.0139 92.8605C47.1959 92.8605 47.3606 92.9081 47.5079 93.0035C47.6553 93.0988 47.7809 93.2288 47.8849 93.3935C47.9889 93.5495 48.0669 93.7315 48.1189 93.9395C48.1709 94.1388 48.1969 94.3468 48.1969 94.5635C48.1969 94.6848 48.1926 94.8105 48.1839 94.9405C48.1753 95.0705 48.1493 95.1961 48.1059 95.3175ZM52.1992 91.6775C52.1992 91.6168 52.1949 91.5735 52.1862 91.5475C52.1862 91.5215 52.1862 91.4998 52.1862 91.4825C52.1862 91.4565 52.1862 91.4261 52.1862 91.3915C52.1862 91.3568 52.1862 91.3048 52.1862 91.2355C52.1862 91.2181 52.1472 91.2095 52.0692 91.2095C51.9999 91.2008 51.9132 91.2008 51.8092 91.2095C51.7139 91.2181 51.6185 91.2268 51.5232 91.2355C51.4365 91.2441 51.3759 91.2485 51.3412 91.2485C51.2372 91.2571 51.1505 91.2658 51.0812 91.2745C51.0119 91.2745 50.9469 91.2745 50.8862 91.2745C50.8255 91.2745 50.7605 91.2745 50.6912 91.2745C50.6219 91.2658 50.5352 91.2571 50.4312 91.2485C50.3965 92.3925 50.3879 93.4975 50.4052 94.5635C50.4312 95.6295 50.4442 96.6955 50.4442 97.7615C50.6522 97.7441 50.8299 97.7398 50.9772 97.7485C51.1332 97.7571 51.2762 97.7615 51.4062 97.7615C51.5362 97.7701 51.6619 97.7701 51.7832 97.7615C51.9045 97.7528 52.0389 97.7268 52.1862 97.6835V97.6315C52.1862 97.3108 52.1819 97.0118 52.1732 96.7345C52.1732 96.4485 52.1732 96.1711 52.1732 95.9025C52.1732 95.6251 52.1689 95.3521 52.1602 95.0835C52.1515 94.8148 52.1429 94.5288 52.1342 94.2255C52.1255 93.9828 52.1602 93.7965 52.2382 93.6665C52.3162 93.5365 52.4245 93.4411 52.5632 93.3805C52.7105 93.3198 52.8795 93.2895 53.0702 93.2895C53.2695 93.2895 53.4862 93.3025 53.7202 93.3285C53.7289 93.3285 53.7852 93.3371 53.8892 93.3545C54.0019 93.3718 54.1102 93.3935 54.2142 93.4195C54.2575 93.4368 54.3009 93.4541 54.3442 93.4715C54.3962 93.4801 54.4439 93.4931 54.4872 93.5105L54.6042 93.5495C54.5955 93.4195 54.5912 93.2808 54.5912 93.1335C54.5912 92.9861 54.5912 92.8258 54.5912 92.6525C54.5912 92.4705 54.5912 92.2668 54.5912 92.0415C54.5999 91.8161 54.6042 91.5561 54.6042 91.2615C54.6042 91.2528 54.5392 91.2485 54.4092 91.2485C54.2879 91.2398 54.1362 91.2398 53.9542 91.2485C53.7722 91.2571 53.5772 91.2788 53.3692 91.3135C53.1612 91.3395 52.9749 91.3785 52.8102 91.4305C52.6889 91.4738 52.5632 91.5215 52.4332 91.5735C52.3119 91.6255 52.2339 91.6601 52.1992 91.6775ZM56.7643 94.4595C56.851 94.4768 56.9897 94.4898 57.1803 94.4985C57.371 94.5071 57.5833 94.5115 57.8173 94.5115C58.06 94.5115 58.3113 94.5071 58.5713 94.4985C58.8313 94.4898 59.074 94.4768 59.2993 94.4595C59.5333 94.4421 59.7327 94.4248 59.8973 94.4075C60.0707 94.3901 60.1877 94.3728 60.2483 94.3555C60.2743 93.9915 60.2743 93.6318 60.2483 93.2765C60.2223 92.9211 60.1443 92.5961 60.0143 92.3015C59.893 92.0068 59.711 91.7555 59.4683 91.5475C59.2257 91.3395 58.905 91.2008 58.5063 91.1315C58.1943 91.0535 57.8737 91.0188 57.5443 91.0275C57.215 91.0361 56.903 91.0881 56.6083 91.1835C56.3137 91.2701 56.0493 91.4045 55.8153 91.5865C55.5813 91.7598 55.408 91.9721 55.2953 92.2235C55.1913 92.5095 55.122 92.8041 55.0873 93.1075C55.0613 93.4021 55.0353 93.7098 55.0093 94.0305C54.992 94.3858 55.0007 94.7411 55.0353 95.0965C55.07 95.4518 55.135 95.7898 55.2303 96.1105C55.3257 96.4225 55.4513 96.7128 55.6073 96.9815C55.7633 97.2415 55.9583 97.4538 56.1923 97.6185C56.4003 97.7398 56.6257 97.8178 56.8683 97.8525C57.111 97.8525 57.3753 97.8611 57.6613 97.8785C57.956 97.8958 58.242 97.8958 58.5193 97.8785C58.7967 97.8611 59.0523 97.8091 59.2863 97.7225C59.5203 97.6358 59.711 97.4885 59.8583 97.2805C59.919 97.2285 59.9667 97.1375 60.0013 97.0075C60.0447 96.8688 60.0793 96.7085 60.1053 96.5265C60.1313 96.3358 60.153 96.1321 60.1703 95.9155C60.1877 95.6988 60.205 95.4778 60.2223 95.2525C60.127 95.2265 60.0057 95.2135 59.8583 95.2135C59.711 95.2048 59.555 95.2048 59.3903 95.2135C59.2343 95.2221 59.0827 95.2308 58.9353 95.2395C58.788 95.2395 58.671 95.2351 58.5843 95.2265C58.6017 95.5818 58.5453 95.8505 58.4153 96.0325C58.294 96.2058 58.1423 96.3098 57.9603 96.3445C57.7783 96.3791 57.592 96.3488 57.4013 96.2535C57.2107 96.1581 57.0633 96.0108 56.9593 95.8115C56.864 95.6555 56.8077 95.4951 56.7903 95.3305C56.7817 95.1658 56.773 94.9535 56.7643 94.6935V94.4595ZM58.3373 92.4445C58.4933 92.5225 58.6147 92.6395 58.7013 92.7955C58.7967 92.9515 58.8443 93.1161 58.8443 93.2895C58.8443 93.3588 58.8443 93.4065 58.8443 93.4325C58.8443 93.4498 58.8183 93.4628 58.7663 93.4715C58.723 93.4715 58.645 93.4671 58.5323 93.4585C58.4197 93.4498 58.2507 93.4455 58.0253 93.4455C57.696 93.4455 57.4447 93.4498 57.2713 93.4585C57.1067 93.4585 56.9853 93.4541 56.9073 93.4455C56.8293 93.4281 56.786 93.4021 56.7773 93.3675C56.7773 93.3241 56.786 93.2548 56.8033 93.1595C56.8207 93.0468 56.8467 92.9385 56.8813 92.8345C56.9247 92.7305 56.9853 92.6395 57.0633 92.5615C57.1413 92.4835 57.2453 92.4228 57.3753 92.3795C57.5053 92.3361 57.6743 92.3145 57.8823 92.3145C57.9777 92.3145 58.06 92.3275 58.1293 92.3535C58.1987 92.3708 58.268 92.4011 58.3373 92.4445ZM66.1807 93.2245C66.1807 92.7565 66.094 92.3361 65.9207 91.9635C65.7474 91.5821 65.457 91.3048 65.0497 91.1315C64.8244 91.0795 64.5774 91.0405 64.3087 91.0145C64.04 90.9798 63.7714 90.9625 63.5027 90.9625C63.234 90.9625 62.9784 90.9755 62.7357 91.0015C62.5017 91.0275 62.3024 91.0621 62.1377 91.1055C61.713 91.2181 61.3837 91.4348 61.1497 91.7555C60.9244 92.0761 60.803 92.4271 60.7857 92.8085C60.777 93.1811 60.881 93.5451 61.0977 93.9005C61.323 94.2471 61.6784 94.5028 62.1637 94.6675C62.4064 94.7715 62.6534 94.8451 62.9047 94.8885C63.156 94.9318 63.3814 94.9838 63.5807 95.0445C63.78 95.0965 63.9404 95.1745 64.0617 95.2785C64.183 95.3825 64.2307 95.5385 64.2047 95.7465C64.2134 95.9978 64.1354 96.1711 63.9707 96.2665C63.806 96.3618 63.624 96.4008 63.4247 96.3835C63.2254 96.3575 63.0347 96.2838 62.8527 96.1625C62.6794 96.0325 62.5884 95.8678 62.5797 95.6685C62.311 95.6685 61.9947 95.6641 61.6307 95.6555C61.2667 95.6381 60.9417 95.6468 60.6557 95.6815V95.7075V95.7465C60.6557 96.0931 60.725 96.4051 60.8637 96.6825C61.011 96.9598 61.2104 97.1938 61.4617 97.3845C61.7217 97.5751 62.0294 97.7181 62.3847 97.8135C62.74 97.9088 63.1387 97.9478 63.5807 97.9305C64.0834 97.9391 64.547 97.8525 64.9717 97.6705C65.3964 97.4885 65.7084 97.1851 65.9077 96.7605C66.0724 96.2838 66.133 95.8851 66.0897 95.5645C66.0464 95.2351 65.9294 94.9145 65.7387 94.6025C65.5394 94.3425 65.2274 94.1561 64.8027 94.0435C64.378 93.9221 63.923 93.8268 63.4377 93.7575C63.2384 93.6881 63.0867 93.5841 62.9827 93.4455C62.8787 93.3068 62.8267 93.1681 62.8267 93.0295C62.8267 92.8908 62.8744 92.7651 62.9697 92.6525C63.0737 92.5311 63.2254 92.4531 63.4247 92.4185C63.5374 92.4098 63.65 92.4271 63.7627 92.4705C63.884 92.5051 63.988 92.5615 64.0747 92.6395C64.17 92.7175 64.2394 92.8085 64.2827 92.9125C64.3347 93.0165 64.3477 93.1205 64.3217 93.2245C64.6164 93.2851 64.9284 93.3111 65.2577 93.3025C65.5957 93.2938 65.9034 93.2678 66.1807 93.2245ZM68.4192 91.1835C68.1419 91.1921 67.9036 91.1921 67.7042 91.1835C67.5049 91.1748 67.3489 91.1661 67.2362 91.1575C67.1929 91.1575 67.1279 91.1531 67.0412 91.1445C66.9632 91.1358 66.9069 91.1358 66.8722 91.1445V91.1575C66.8202 91.6688 66.7942 92.1975 66.7942 92.7435C66.7942 93.2808 66.8029 93.8268 66.8202 94.3815C66.8376 94.9361 66.8462 95.4951 66.8462 96.0585C66.8549 96.6218 66.8376 97.1765 66.7942 97.7225C66.8549 97.7051 66.9762 97.7008 67.1582 97.7095C67.3402 97.7181 67.5309 97.7225 67.7302 97.7225C67.9382 97.7311 68.1289 97.7311 68.3022 97.7225C68.4756 97.7225 68.5839 97.6965 68.6272 97.6445C68.5666 96.5958 68.5492 95.5255 68.5752 94.4335C68.6099 93.3415 68.6316 92.2711 68.6402 91.2225V91.1835H68.4192ZM66.8202 88.3495C66.8116 88.7481 66.8159 89.0861 66.8332 89.3635C66.8592 89.6321 66.8722 89.8921 66.8722 90.1435C67.0369 90.1348 67.2146 90.1391 67.4052 90.1565C67.5959 90.1651 67.7736 90.1738 67.9382 90.1825C68.1116 90.1825 68.2589 90.1738 68.3802 90.1565C68.5102 90.1391 68.5926 90.1045 68.6272 90.0525C68.6272 89.9225 68.6229 89.7751 68.6142 89.6105C68.6142 89.4371 68.6099 89.2725 68.6012 89.1165C68.6012 88.9518 68.5969 88.8045 68.5882 88.6745C68.5882 88.5358 68.5882 88.4405 68.5882 88.3885L66.8202 88.3495ZM69.6416 91.7945C69.6156 91.8898 69.5766 92.0198 69.5246 92.1845C69.4726 92.3405 69.4423 92.4661 69.4336 92.5615C69.4076 92.7261 69.3903 92.8865 69.3816 93.0425C69.373 93.1898 69.3686 93.3415 69.3686 93.4975C69.3946 93.7835 69.399 94.0998 69.3816 94.4465C69.373 94.7931 69.3773 95.1398 69.3946 95.4865C69.412 95.8245 69.464 96.1495 69.5506 96.4615C69.6373 96.7735 69.7976 97.0335 70.0316 97.2415C70.335 97.5448 70.7076 97.7355 71.1496 97.8135C71.3923 97.8135 71.661 97.8221 71.9556 97.8395C72.2503 97.8655 72.5363 97.8655 72.8136 97.8395C73.091 97.8221 73.3466 97.7701 73.5806 97.6835C73.8233 97.5968 74.0183 97.4495 74.1656 97.2415C74.2523 97.1548 74.3173 96.9945 74.3606 96.7605C74.4126 96.5265 74.4516 96.2621 74.4776 95.9675C74.5123 95.6728 74.534 95.3651 74.5426 95.0445C74.56 94.7238 74.573 94.4378 74.5816 94.1865C74.573 93.9005 74.5643 93.6231 74.5556 93.3545C74.547 93.0771 74.5253 92.8258 74.4906 92.6005C74.456 92.3665 74.404 92.1628 74.3346 91.9895C74.2653 91.8161 74.17 91.6905 74.0486 91.6125C73.8666 91.4391 73.65 91.3091 73.3986 91.2225C73.1473 91.1271 72.883 91.0708 72.6056 91.0535C72.4236 91.0361 72.2503 91.0361 72.0856 91.0535C71.9296 91.0621 71.765 91.0578 71.5916 91.0405C71.3836 91.0405 71.1756 91.0535 70.9676 91.0795C70.7683 91.1055 70.5776 91.1531 70.3956 91.2225C70.2223 91.2831 70.0663 91.3611 69.9276 91.4565C69.7976 91.5518 69.7023 91.6645 69.6416 91.7945ZM71.2666 93.3285C71.3793 93.1898 71.5266 93.0945 71.7086 93.0425C72.0466 92.9645 72.3196 92.9948 72.5276 93.1335C72.7356 93.2721 72.8613 93.4931 72.9046 93.7965C72.9566 94.0478 72.9696 94.3165 72.9436 94.6025C72.9263 94.8798 72.9003 95.1571 72.8656 95.4345C72.8136 95.6511 72.714 95.7941 72.5666 95.8635C72.454 95.9241 72.311 95.9675 72.1376 95.9935C71.9643 96.0108 71.7953 96.0021 71.6306 95.9675C71.4746 95.9241 71.3403 95.8505 71.2276 95.7465C71.115 95.6338 71.063 95.4778 71.0716 95.2785C71.089 94.9751 71.0976 94.6891 71.0976 94.4205C71.0976 94.1431 71.115 93.8658 71.1496 93.5885C71.1756 93.4498 71.2146 93.3631 71.2666 93.3285ZM77.0808 91.9245C77.0721 91.8031 77.0678 91.6948 77.0678 91.5995C77.0765 91.5041 77.0721 91.3828 77.0548 91.2355C77.0548 91.2095 77.0201 91.1965 76.9508 91.1965C76.8815 91.1878 76.8035 91.1878 76.7168 91.1965C76.6301 91.2051 76.5435 91.2181 76.4568 91.2355C76.3701 91.2441 76.3095 91.2485 76.2748 91.2485C76.1708 91.2571 76.0841 91.2658 76.0148 91.2745C75.9455 91.2745 75.8805 91.2745 75.8198 91.2745C75.7591 91.2745 75.6941 91.2745 75.6248 91.2745C75.5555 91.2658 75.4688 91.2571 75.3648 91.2485C75.3301 92.3925 75.3215 93.4975 75.3388 94.5635C75.3648 95.6295 75.3778 96.6955 75.3778 97.7615C75.5858 97.7441 75.7591 97.7398 75.8978 97.7485C76.0365 97.7571 76.1621 97.7615 76.2748 97.7615C76.3875 97.7701 76.4958 97.7701 76.5998 97.7615C76.7125 97.7528 76.8425 97.7268 76.9898 97.6835V97.6315C77.0245 97.3455 77.0418 97.0595 77.0418 96.7735C77.0418 96.4875 77.0331 96.2015 77.0158 95.9155C77.0071 95.6208 76.9985 95.3305 76.9898 95.0445C76.9811 94.7498 76.9855 94.4508 77.0028 94.1475C77.0201 93.9135 77.0808 93.7401 77.1848 93.6275C77.2888 93.5061 77.4058 93.4281 77.5358 93.3935C77.6658 93.3501 77.7958 93.3415 77.9258 93.3675C78.0645 93.3848 78.1685 93.4108 78.2378 93.4455C78.2465 93.4541 78.2551 93.4585 78.2638 93.4585C78.2725 93.4585 78.2811 93.4628 78.2898 93.4715C78.3591 93.5235 78.4111 93.5971 78.4458 93.6925C78.4891 93.7878 78.5195 93.8961 78.5368 94.0175C78.5628 94.1388 78.5801 94.2645 78.5888 94.3945C78.5975 94.5158 78.6061 94.6285 78.6148 94.7325C78.6321 94.9665 78.6408 95.2178 78.6408 95.4865C78.6495 95.7551 78.6495 96.0238 78.6408 96.2925C78.6408 96.5611 78.6408 96.8211 78.6408 97.0725C78.6408 97.3238 78.6495 97.5491 78.6668 97.7485C78.9701 97.7485 79.2388 97.7485 79.4728 97.7485C79.7155 97.7571 79.9885 97.7398 80.2918 97.6965C80.2745 97.4018 80.2701 97.0595 80.2788 96.6695C80.2875 96.2795 80.2961 95.8765 80.3048 95.4605C80.3135 95.0358 80.3178 94.6198 80.3178 94.2125C80.3265 93.7965 80.3221 93.4151 80.3048 93.0685C80.2961 92.7218 80.2658 92.4271 80.2138 92.1845C80.1705 91.9331 80.1055 91.7685 80.0188 91.6905C79.8368 91.5345 79.6331 91.4261 79.4078 91.3655C79.1825 91.3048 78.9485 91.2788 78.7058 91.2875C78.4718 91.2961 78.2421 91.3395 78.0168 91.4175C77.7915 91.4955 77.5878 91.5995 77.4058 91.7295C77.3625 91.7641 77.3061 91.7988 77.2368 91.8335C77.1761 91.8681 77.1241 91.8985 77.0808 91.9245ZM82.7643 94.4595C82.851 94.4768 82.9897 94.4898 83.1803 94.4985C83.371 94.5071 83.5833 94.5115 83.8173 94.5115C84.06 94.5115 84.3113 94.5071 84.5713 94.4985C84.8313 94.4898 85.074 94.4768 85.2993 94.4595C85.5333 94.4421 85.7327 94.4248 85.8973 94.4075C86.0707 94.3901 86.1877 94.3728 86.2483 94.3555C86.2743 93.9915 86.2743 93.6318 86.2483 93.2765C86.2223 92.9211 86.1443 92.5961 86.0143 92.3015C85.893 92.0068 85.711 91.7555 85.4683 91.5475C85.2257 91.3395 84.905 91.2008 84.5063 91.1315C84.1943 91.0535 83.8737 91.0188 83.5443 91.0275C83.215 91.0361 82.903 91.0881 82.6083 91.1835C82.3137 91.2701 82.0493 91.4045 81.8153 91.5865C81.5813 91.7598 81.408 91.9721 81.2953 92.2235C81.1913 92.5095 81.122 92.8041 81.0873 93.1075C81.0613 93.4021 81.0353 93.7098 81.0093 94.0305C80.992 94.3858 81.0007 94.7411 81.0353 95.0965C81.07 95.4518 81.135 95.7898 81.2303 96.1105C81.3257 96.4225 81.4513 96.7128 81.6073 96.9815C81.7633 97.2415 81.9583 97.4538 82.1923 97.6185C82.4003 97.7398 82.6257 97.8178 82.8683 97.8525C83.111 97.8525 83.3753 97.8611 83.6613 97.8785C83.956 97.8958 84.242 97.8958 84.5193 97.8785C84.7967 97.8611 85.0523 97.8091 85.2863 97.7225C85.5203 97.6358 85.711 97.4885 85.8583 97.2805C85.919 97.2285 85.9667 97.1375 86.0013 97.0075C86.0447 96.8688 86.0793 96.7085 86.1053 96.5265C86.1313 96.3358 86.153 96.1321 86.1703 95.9155C86.1877 95.6988 86.205 95.4778 86.2223 95.2525C86.127 95.2265 86.0057 95.2135 85.8583 95.2135C85.711 95.2048 85.555 95.2048 85.3903 95.2135C85.2343 95.2221 85.0827 95.2308 84.9353 95.2395C84.788 95.2395 84.671 95.2351 84.5843 95.2265C84.6017 95.5818 84.5453 95.8505 84.4153 96.0325C84.294 96.2058 84.1423 96.3098 83.9603 96.3445C83.7783 96.3791 83.592 96.3488 83.4013 96.2535C83.2107 96.1581 83.0633 96.0108 82.9593 95.8115C82.864 95.6555 82.8077 95.4951 82.7903 95.3305C82.7817 95.1658 82.773 94.9535 82.7643 94.6935V94.4595ZM84.3373 92.4445C84.4933 92.5225 84.6147 92.6395 84.7013 92.7955C84.7967 92.9515 84.8443 93.1161 84.8443 93.2895C84.8443 93.3588 84.8443 93.4065 84.8443 93.4325C84.8443 93.4498 84.8183 93.4628 84.7663 93.4715C84.723 93.4715 84.645 93.4671 84.5323 93.4585C84.4197 93.4498 84.2507 93.4455 84.0253 93.4455C83.696 93.4455 83.4447 93.4498 83.2713 93.4585C83.1067 93.4585 82.9853 93.4541 82.9073 93.4455C82.8293 93.4281 82.786 93.4021 82.7773 93.3675C82.7773 93.3241 82.786 93.2548 82.8033 93.1595C82.8207 93.0468 82.8467 92.9385 82.8813 92.8345C82.9247 92.7305 82.9853 92.6395 83.0633 92.5615C83.1413 92.4835 83.2453 92.4228 83.3753 92.3795C83.5053 92.3361 83.6743 92.3145 83.8823 92.3145C83.9777 92.3145 84.06 92.3275 84.1293 92.3535C84.1987 92.3708 84.268 92.4011 84.3373 92.4445ZM92.1807 93.2245C92.1807 92.7565 92.094 92.3361 91.9207 91.9635C91.7474 91.5821 91.457 91.3048 91.0497 91.1315C90.8244 91.0795 90.5774 91.0405 90.3087 91.0145C90.04 90.9798 89.7714 90.9625 89.5027 90.9625C89.234 90.9625 88.9784 90.9755 88.7357 91.0015C88.5017 91.0275 88.3024 91.0621 88.1377 91.1055C87.713 91.2181 87.3837 91.4348 87.1497 91.7555C86.9244 92.0761 86.803 92.4271 86.7857 92.8085C86.777 93.1811 86.881 93.5451 87.0977 93.9005C87.323 94.2471 87.6784 94.5028 88.1637 94.6675C88.4064 94.7715 88.6534 94.8451 88.9047 94.8885C89.156 94.9318 89.3814 94.9838 89.5807 95.0445C89.78 95.0965 89.9404 95.1745 90.0617 95.2785C90.183 95.3825 90.2307 95.5385 90.2047 95.7465C90.2134 95.9978 90.1354 96.1711 89.9707 96.2665C89.806 96.3618 89.624 96.4008 89.4247 96.3835C89.2254 96.3575 89.0347 96.2838 88.8527 96.1625C88.6794 96.0325 88.5884 95.8678 88.5797 95.6685C88.311 95.6685 87.9947 95.6641 87.6307 95.6555C87.2667 95.6381 86.9417 95.6468 86.6557 95.6815V95.7075V95.7465C86.6557 96.0931 86.725 96.4051 86.8637 96.6825C87.011 96.9598 87.2104 97.1938 87.4617 97.3845C87.7217 97.5751 88.0294 97.7181 88.3847 97.8135C88.74 97.9088 89.1387 97.9478 89.5807 97.9305C90.0834 97.9391 90.547 97.8525 90.9717 97.6705C91.3964 97.4885 91.7084 97.1851 91.9077 96.7605C92.0724 96.2838 92.133 95.8851 92.0897 95.5645C92.0464 95.2351 91.9294 94.9145 91.7387 94.6025C91.5394 94.3425 91.2274 94.1561 90.8027 94.0435C90.378 93.9221 89.923 93.8268 89.4377 93.7575C89.2384 93.6881 89.0867 93.5841 88.9827 93.4455C88.8787 93.3068 88.8267 93.1681 88.8267 93.0295C88.8267 92.8908 88.8744 92.7651 88.9697 92.6525C89.0737 92.5311 89.2254 92.4531 89.4247 92.4185C89.5374 92.4098 89.65 92.4271 89.7627 92.4705C89.884 92.5051 89.988 92.5615 90.0747 92.6395C90.17 92.7175 90.2394 92.8085 90.2827 92.9125C90.3347 93.0165 90.3477 93.1205 90.3217 93.2245C90.6164 93.2851 90.9284 93.3111 91.2577 93.3025C91.5957 93.2938 91.9034 93.2678 92.1807 93.2245Z" fill="#06792D"/>
<path d="M101.676 97.6835C101.546 97.3281 101.385 96.9858 101.195 96.6565C101.004 96.3185 100.805 95.9891 100.597 95.6685C100.389 95.3478 100.176 95.0315 99.9598 94.7195C99.7431 94.3988 99.5438 94.0781 99.3618 93.7575V93.7445H99.3748H99.4268C99.8428 93.7185 100.185 93.6015 100.454 93.3935C100.731 93.1855 100.952 92.9255 101.117 92.6135C101.385 92.1628 101.511 91.6991 101.494 91.2225C101.485 90.7371 101.368 90.2951 101.143 89.8965C100.917 89.4978 100.601 89.1641 100.194 88.8955C99.7864 88.6268 99.3271 88.4795 98.8158 88.4535C98.1831 88.3841 97.5764 88.3798 96.9958 88.4405C96.4151 88.5011 95.8821 88.5661 95.3968 88.6355C95.4141 88.7481 95.4271 88.9648 95.4358 89.2855C95.4531 89.5975 95.4661 89.9788 95.4748 90.4295C95.4834 90.8715 95.4921 91.3611 95.5008 91.8985C95.5181 92.4271 95.5268 92.9645 95.5268 93.5105C95.5354 94.0478 95.5398 94.5721 95.5398 95.0835C95.5398 95.5861 95.5398 96.0325 95.5398 96.4225C95.5398 96.8125 95.5354 97.1288 95.5268 97.3715C95.5181 97.6055 95.5051 97.7225 95.4878 97.7225C95.5311 97.7138 95.6438 97.7138 95.8258 97.7225C96.0164 97.7311 96.2288 97.7311 96.4628 97.7225C96.6968 97.7225 96.9308 97.7138 97.1648 97.6965C97.4074 97.6791 97.6024 97.6401 97.7498 97.5795C97.7411 97.4148 97.7281 97.1938 97.7108 96.9165C97.6934 96.6391 97.6761 96.3488 97.6588 96.0455C97.6501 95.7335 97.6458 95.4345 97.6458 95.1485C97.6458 94.8538 97.6588 94.6068 97.6848 94.4075L97.7108 94.4465C97.8928 94.6718 98.0748 94.9318 98.2568 95.2265C98.4388 95.5211 98.6078 95.8201 98.7638 96.1235C98.9198 96.4268 99.0628 96.7171 99.1928 96.9945C99.3228 97.2718 99.4311 97.5101 99.5178 97.7095H99.5308C99.9208 97.7355 100.302 97.7398 100.675 97.7225C101.047 97.6965 101.385 97.6835 101.689 97.6835H101.676ZM97.2948 90.4555C97.5981 90.3341 97.8971 90.2691 98.1918 90.2605C98.4864 90.2431 98.7291 90.3211 98.9198 90.4945C99.0411 90.5898 99.1278 90.7198 99.1798 90.8845C99.2318 91.0405 99.2491 91.2008 99.2318 91.3655C99.2144 91.5215 99.1581 91.6688 99.0628 91.8075C98.9761 91.9375 98.8504 92.0198 98.6858 92.0545C98.4778 92.0891 98.2568 92.1021 98.0228 92.0935C97.7888 92.0848 97.5721 92.0718 97.3728 92.0545H97.3598C97.3424 91.9591 97.3294 91.8421 97.3208 91.7035C97.3208 91.5648 97.3208 91.4218 97.3208 91.2745C97.3208 91.1271 97.3164 90.9841 97.3078 90.8455C97.3078 90.6981 97.3034 90.5681 97.2948 90.4555ZM103.585 94.4595C103.671 94.4768 103.81 94.4898 104.001 94.4985C104.191 94.5071 104.404 94.5115 104.638 94.5115C104.88 94.5115 105.132 94.5071 105.392 94.4985C105.652 94.4898 105.894 94.4768 106.12 94.4595C106.354 94.4421 106.553 94.4248 106.718 94.4075C106.891 94.3901 107.008 94.3728 107.069 94.3555C107.095 93.9915 107.095 93.6318 107.069 93.2765C107.043 92.9211 106.965 92.5961 106.835 92.3015C106.713 92.0068 106.531 91.7555 106.289 91.5475C106.046 91.3395 105.725 91.2008 105.327 91.1315C105.015 91.0535 104.694 91.0188 104.365 91.0275C104.035 91.0361 103.723 91.0881 103.429 91.1835C103.134 91.2701 102.87 91.4045 102.636 91.5865C102.402 91.7598 102.228 91.9721 102.116 92.2235C102.012 92.5095 101.942 92.8041 101.908 93.1075C101.882 93.4021 101.856 93.7098 101.83 94.0305C101.812 94.3858 101.821 94.7411 101.856 95.0965C101.89 95.4518 101.955 95.7898 102.051 96.1105C102.146 96.4225 102.272 96.7128 102.428 96.9815C102.584 97.2415 102.779 97.4538 103.013 97.6185C103.221 97.7398 103.446 97.8178 103.689 97.8525C103.931 97.8525 104.196 97.8611 104.482 97.8785C104.776 97.8958 105.062 97.8958 105.34 97.8785C105.617 97.8611 105.873 97.8091 106.107 97.7225C106.341 97.6358 106.531 97.4885 106.679 97.2805C106.739 97.2285 106.787 97.1375 106.822 97.0075C106.865 96.8688 106.9 96.7085 106.926 96.5265C106.952 96.3358 106.973 96.1321 106.991 95.9155C107.008 95.6988 107.025 95.4778 107.043 95.2525C106.947 95.2265 106.826 95.2135 106.679 95.2135C106.531 95.2048 106.375 95.2048 106.211 95.2135C106.055 95.2221 105.903 95.2308 105.756 95.2395C105.608 95.2395 105.491 95.2351 105.405 95.2265C105.422 95.5818 105.366 95.8505 105.236 96.0325C105.114 96.2058 104.963 96.3098 104.781 96.3445C104.599 96.3791 104.412 96.3488 104.222 96.2535C104.031 96.1581 103.884 96.0108 103.78 95.8115C103.684 95.6555 103.628 95.4951 103.611 95.3305C103.602 95.1658 103.593 94.9535 103.585 94.6935V94.4595ZM105.158 92.4445C105.314 92.5225 105.435 92.6395 105.522 92.7955C105.617 92.9515 105.665 93.1161 105.665 93.2895C105.665 93.3588 105.665 93.4065 105.665 93.4325C105.665 93.4498 105.639 93.4628 105.587 93.4715C105.543 93.4715 105.465 93.4671 105.353 93.4585C105.24 93.4498 105.071 93.4455 104.846 93.4455C104.516 93.4455 104.265 93.4498 104.092 93.4585C103.927 93.4585 103.806 93.4541 103.728 93.4455C103.65 93.4281 103.606 93.4021 103.598 93.3675C103.598 93.3241 103.606 93.2548 103.624 93.1595C103.641 93.0468 103.667 92.9385 103.702 92.8345C103.745 92.7305 103.806 92.6395 103.884 92.5615C103.962 92.4835 104.066 92.4228 104.196 92.3795C104.326 92.3361 104.495 92.3145 104.703 92.3145C104.798 92.3145 104.88 92.3275 104.95 92.3535C105.019 92.3708 105.088 92.4011 105.158 92.4445ZM109.088 94.6415C109.088 94.5548 109.088 94.4725 109.088 94.3945C109.088 94.3078 109.097 94.2211 109.114 94.1345C109.149 93.9351 109.209 93.7488 109.296 93.5755C109.391 93.3935 109.504 93.2288 109.634 93.0815C109.738 92.9948 109.855 92.9341 109.985 92.8995C110.124 92.8561 110.262 92.8431 110.401 92.8605C110.54 92.8778 110.665 92.9255 110.778 93.0035C110.899 93.0728 110.986 93.1725 111.038 93.3025C111.125 93.6318 111.172 93.9785 111.181 94.3425C111.198 94.6978 111.207 95.0488 111.207 95.3955C111.198 95.4735 111.185 95.5558 111.168 95.6425C111.159 95.7205 111.142 95.7985 111.116 95.8765C111.09 95.9458 111.055 96.0108 111.012 96.0715C110.969 96.1235 110.908 96.1625 110.83 96.1885C110.605 96.2578 110.362 96.2751 110.102 96.2405C109.842 96.1971 109.634 96.0801 109.478 95.8895C109.218 95.5775 109.088 95.2005 109.088 94.7585V94.6415ZM111.337 100.322C111.441 100.314 111.554 100.296 111.675 100.27C111.796 100.244 111.918 100.197 112.039 100.127C112.16 100.067 112.282 99.9801 112.403 99.8675C112.533 99.7548 112.659 99.6031 112.78 99.4125C112.867 99.2738 112.906 99.1005 112.897 98.8925C112.888 98.6931 112.888 98.4895 112.897 98.2815C112.949 97.0335 112.971 95.8201 112.962 94.6415C112.962 93.4541 112.945 92.3188 112.91 91.2355C112.615 91.2355 112.321 91.2311 112.026 91.2225C111.731 91.2051 111.441 91.2138 111.155 91.2485C111.129 91.2918 111.116 91.3525 111.116 91.4305C111.125 91.4998 111.129 91.5735 111.129 91.6515C111.138 91.7208 111.138 91.7815 111.129 91.8335C111.129 91.8768 111.112 91.8898 111.077 91.8725C110.973 91.6298 110.8 91.4651 110.557 91.3785C110.323 91.2831 110.067 91.2441 109.79 91.2615C109.235 91.2961 108.811 91.4565 108.516 91.7425C108.221 92.0198 108.005 92.3665 107.866 92.7825C107.736 93.1898 107.662 93.6275 107.645 94.0955C107.628 94.5635 107.619 95.0011 107.619 95.4085C107.636 95.6771 107.671 95.9415 107.723 96.2015C107.775 96.4528 107.862 96.6955 107.983 96.9295C108.061 97.0941 108.161 97.2285 108.282 97.3325C108.403 97.4365 108.538 97.5188 108.685 97.5795C108.841 97.6401 109.001 97.6835 109.166 97.7095C109.339 97.7355 109.508 97.7485 109.673 97.7485C109.794 97.7398 109.924 97.7355 110.063 97.7355C110.202 97.7355 110.336 97.7268 110.466 97.7095C110.605 97.6921 110.73 97.6618 110.843 97.6185C110.964 97.5751 111.068 97.5058 111.155 97.4105C111.138 97.5665 111.138 97.7181 111.155 97.8655C111.164 97.9348 111.164 98.0128 111.155 98.0995C111.146 98.1948 111.138 98.2858 111.129 98.3725C111.077 98.6151 110.964 98.7885 110.791 98.8925C110.626 98.9965 110.453 99.0398 110.271 99.0225C110.098 99.0051 109.937 98.9271 109.79 98.7885C109.651 98.6585 109.582 98.4808 109.582 98.2555C109.478 98.2381 109.348 98.2208 109.192 98.2035C109.045 98.1948 108.889 98.1861 108.724 98.1775C108.568 98.1775 108.416 98.1818 108.269 98.1905C108.122 98.2078 108.005 98.2338 107.918 98.2685C107.909 98.3378 107.905 98.4201 107.905 98.5155C107.914 98.6108 107.927 98.7105 107.944 98.8145C107.97 98.9185 107.996 99.0181 108.022 99.1135C108.057 99.2175 108.091 99.2998 108.126 99.3605C108.325 99.6551 108.585 99.8891 108.906 100.062C109.227 100.236 109.591 100.322 109.998 100.322C110.353 100.322 110.644 100.327 110.869 100.335C111.094 100.344 111.25 100.34 111.337 100.322ZM117.054 97.0205C117.063 97.1418 117.063 97.2501 117.054 97.3455C117.054 97.4408 117.063 97.5621 117.08 97.7095C117.08 97.7355 117.115 97.7485 117.184 97.7485C117.254 97.7571 117.332 97.7571 117.418 97.7485C117.505 97.7398 117.592 97.7311 117.678 97.7225C117.765 97.7051 117.826 97.6965 117.86 97.6965C117.964 97.6878 118.051 97.6835 118.12 97.6835C118.19 97.6748 118.255 97.6705 118.315 97.6705C118.376 97.6705 118.441 97.6748 118.51 97.6835C118.58 97.6835 118.666 97.6878 118.77 97.6965C118.805 96.5525 118.809 95.4475 118.783 94.3815C118.766 93.3155 118.757 92.2495 118.757 91.1835C118.549 91.2008 118.376 91.2051 118.237 91.1965C118.099 91.1878 117.973 91.1835 117.86 91.1835C117.748 91.1748 117.635 91.1748 117.522 91.1835C117.418 91.1921 117.293 91.2181 117.145 91.2615V91.3135C117.102 91.5995 117.08 91.8855 117.08 92.1715C117.089 92.4575 117.098 92.7478 117.106 93.0425C117.124 93.3285 117.137 93.6188 117.145 93.9135C117.154 94.2081 117.15 94.5028 117.132 94.7975C117.115 95.0315 117.054 95.2091 116.95 95.3305C116.846 95.4431 116.729 95.5211 116.599 95.5645C116.469 95.5991 116.335 95.6078 116.196 95.5905C116.066 95.5645 115.967 95.5341 115.897 95.4995C115.889 95.4908 115.88 95.4865 115.871 95.4865C115.863 95.4865 115.854 95.4821 115.845 95.4735C115.776 95.4215 115.72 95.3478 115.676 95.2525C115.642 95.1571 115.611 95.0488 115.585 94.9275C115.568 94.8061 115.555 94.6848 115.546 94.5635C115.538 94.4335 115.529 94.3165 115.52 94.2125C115.503 93.9785 115.49 93.7271 115.481 93.4585C115.481 93.1898 115.481 92.9211 115.481 92.6525C115.49 92.3838 115.494 92.1238 115.494 91.8725C115.494 91.6211 115.486 91.3958 115.468 91.1965C115.165 91.1965 114.892 91.1965 114.649 91.1965C114.415 91.1878 114.147 91.2051 113.843 91.2485C113.861 91.5431 113.865 91.8855 113.856 92.2755C113.848 92.6655 113.839 93.0728 113.83 93.4975C113.822 93.9135 113.813 94.3295 113.804 94.7455C113.804 95.1528 113.809 95.5298 113.817 95.8765C113.835 96.2231 113.865 96.5221 113.908 96.7735C113.96 97.0161 114.03 97.1765 114.116 97.2545C114.298 97.4105 114.502 97.5188 114.727 97.5795C114.953 97.6401 115.182 97.6661 115.416 97.6575C115.659 97.6488 115.893 97.6055 116.118 97.5275C116.344 97.4495 116.547 97.3455 116.729 97.2155C116.773 97.1808 116.825 97.1461 116.885 97.1115C116.955 97.0768 117.011 97.0465 117.054 97.0205ZM119.761 88.2715C119.683 89.0601 119.644 89.8488 119.644 90.6375C119.653 91.4261 119.67 92.2148 119.696 93.0035C119.722 93.7921 119.739 94.5808 119.748 95.3695C119.765 96.1581 119.744 96.9425 119.683 97.7225C119.744 97.7051 119.865 97.7008 120.047 97.7095C120.229 97.7181 120.42 97.7225 120.619 97.7225C120.827 97.7311 121.018 97.7311 121.191 97.7225C121.364 97.7225 121.473 97.6965 121.516 97.6445C121.499 97.2978 121.486 96.8775 121.477 96.3835C121.468 95.8808 121.464 95.3435 121.464 94.7715C121.464 94.1995 121.464 93.6058 121.464 92.9905C121.473 92.3751 121.481 91.7815 121.49 91.2095C121.499 90.6375 121.507 90.1001 121.516 89.5975C121.525 89.0948 121.529 88.6658 121.529 88.3105L119.761 88.2715ZM127.64 91.2485C127.362 91.2311 127.115 91.2181 126.899 91.2095C126.691 91.2008 126.513 91.1921 126.366 91.1835C126.34 91.1835 126.292 91.1835 126.223 91.1835C126.153 91.1835 126.084 91.1835 126.015 91.1835C125.945 91.1748 125.88 91.1748 125.82 91.1835C125.768 91.1835 125.742 91.1878 125.742 91.1965C125.742 91.3005 125.729 91.4045 125.703 91.5085C125.685 91.6038 125.681 91.7208 125.69 91.8595C125.629 91.7121 125.555 91.5995 125.469 91.5215C125.382 91.4348 125.282 91.3741 125.17 91.3395C125.057 91.2961 124.931 91.2745 124.793 91.2745C124.663 91.2658 124.52 91.2615 124.364 91.2615C124.06 91.2701 123.774 91.3525 123.506 91.5085C123.237 91.6558 123.003 91.8638 122.804 92.1325C122.613 92.3925 122.461 92.7045 122.349 93.0685C122.236 93.4325 122.18 93.8311 122.18 94.2645C122.18 94.6111 122.214 94.9881 122.284 95.3955C122.362 95.8028 122.479 96.1798 122.635 96.5265C122.791 96.8731 122.986 97.1635 123.22 97.3975C123.462 97.6315 123.753 97.7485 124.091 97.7485C124.394 97.7485 124.702 97.6748 125.014 97.5275C125.334 97.3801 125.599 97.2025 125.807 96.9945C125.807 97.0811 125.798 97.1548 125.781 97.2155C125.763 97.2761 125.755 97.3541 125.755 97.4495C125.755 97.5188 125.763 97.5795 125.781 97.6315C125.807 97.6835 125.85 97.7181 125.911 97.7355C126.006 97.7355 126.097 97.7311 126.184 97.7225C126.279 97.7051 126.374 97.6965 126.47 97.6965C126.608 97.6965 126.747 97.7051 126.886 97.7225C127.033 97.7311 127.176 97.7355 127.315 97.7355H127.471C127.575 97.7181 127.627 97.6531 127.627 97.5405C127.635 97.4278 127.64 97.3151 127.64 97.2025C127.7 96.2751 127.713 95.3608 127.679 94.4595C127.644 93.5495 127.64 92.6265 127.666 91.6905V91.5605C127.666 91.5085 127.661 91.4565 127.653 91.4045C127.653 91.3525 127.648 91.3005 127.64 91.2485ZM123.857 93.8355C123.9 93.6188 124.021 93.4281 124.221 93.2635C124.429 93.0901 124.71 93.0035 125.066 93.0035C125.248 93.0035 125.382 93.0165 125.469 93.0425C125.564 93.0685 125.629 93.1291 125.664 93.2245C125.707 93.3198 125.729 93.4585 125.729 93.6405C125.737 93.8138 125.742 94.0521 125.742 94.3555C125.742 94.5981 125.737 94.8191 125.729 95.0185C125.729 95.2091 125.703 95.3738 125.651 95.5125C125.607 95.6425 125.529 95.7465 125.417 95.8245C125.313 95.8938 125.152 95.9285 124.936 95.9285C124.572 95.9285 124.286 95.7941 124.078 95.5255C123.878 95.2481 123.779 94.9145 123.779 94.5245C123.779 94.4118 123.783 94.2991 123.792 94.1865C123.8 94.0651 123.822 93.9481 123.857 93.8355ZM130.364 91.6775C130.364 91.6168 130.36 91.5735 130.351 91.5475C130.351 91.5215 130.351 91.4998 130.351 91.4825C130.351 91.4565 130.351 91.4261 130.351 91.3915C130.351 91.3568 130.351 91.3048 130.351 91.2355C130.351 91.2181 130.312 91.2095 130.234 91.2095C130.165 91.2008 130.078 91.2008 129.974 91.2095C129.879 91.2181 129.784 91.2268 129.688 91.2355C129.602 91.2441 129.541 91.2485 129.506 91.2485C129.402 91.2571 129.316 91.2658 129.246 91.2745C129.177 91.2745 129.112 91.2745 129.051 91.2745C128.991 91.2745 128.926 91.2745 128.856 91.2745C128.787 91.2658 128.7 91.2571 128.596 91.2485C128.562 92.3925 128.553 93.4975 128.57 94.5635C128.596 95.6295 128.609 96.6955 128.609 97.7615C128.817 97.7441 128.995 97.7398 129.142 97.7485C129.298 97.7571 129.441 97.7615 129.571 97.7615C129.701 97.7701 129.827 97.7701 129.948 97.7615C130.07 97.7528 130.204 97.7268 130.351 97.6835V97.6315C130.351 97.3108 130.347 97.0118 130.338 96.7345C130.338 96.4485 130.338 96.1711 130.338 95.9025C130.338 95.6251 130.334 95.3521 130.325 95.0835C130.317 94.8148 130.308 94.5288 130.299 94.2255C130.291 93.9828 130.325 93.7965 130.403 93.6665C130.481 93.5365 130.59 93.4411 130.728 93.3805C130.876 93.3198 131.045 93.2895 131.235 93.2895C131.435 93.2895 131.651 93.3025 131.885 93.3285C131.894 93.3285 131.95 93.3371 132.054 93.3545C132.167 93.3718 132.275 93.3935 132.379 93.4195C132.423 93.4368 132.466 93.4541 132.509 93.4715C132.561 93.4801 132.609 93.4931 132.652 93.5105L132.769 93.5495C132.761 93.4195 132.756 93.2808 132.756 93.1335C132.756 92.9861 132.756 92.8258 132.756 92.6525C132.756 92.4705 132.756 92.2668 132.756 92.0415C132.765 91.8161 132.769 91.5561 132.769 91.2615C132.769 91.2528 132.704 91.2485 132.574 91.2485C132.453 91.2398 132.301 91.2398 132.119 91.2485C131.937 91.2571 131.742 91.2788 131.534 91.3135C131.326 91.3395 131.14 91.3785 130.975 91.4305C130.854 91.4738 130.728 91.5215 130.598 91.5735C130.477 91.6255 130.399 91.6601 130.364 91.6775ZM134.929 94.4595C135.016 94.4768 135.155 94.4898 135.345 94.4985C135.536 94.5071 135.748 94.5115 135.982 94.5115C136.225 94.5115 136.476 94.5071 136.736 94.4985C136.996 94.4898 137.239 94.4768 137.464 94.4595C137.698 94.4421 137.898 94.4248 138.062 94.4075C138.236 94.3901 138.353 94.3728 138.413 94.3555C138.439 93.9915 138.439 93.6318 138.413 93.2765C138.387 92.9211 138.309 92.5961 138.179 92.3015C138.058 92.0068 137.876 91.7555 137.633 91.5475C137.391 91.3395 137.07 91.2008 136.671 91.1315C136.359 91.0535 136.039 91.0188 135.709 91.0275C135.38 91.0361 135.068 91.0881 134.773 91.1835C134.479 91.2701 134.214 91.4045 133.98 91.5865C133.746 91.7598 133.573 91.9721 133.46 92.2235C133.356 92.5095 133.287 92.8041 133.252 93.1075C133.226 93.4021 133.2 93.7098 133.174 94.0305C133.157 94.3858 133.166 94.7411 133.2 95.0965C133.235 95.4518 133.3 95.7898 133.395 96.1105C133.491 96.4225 133.616 96.7128 133.772 96.9815C133.928 97.2415 134.123 97.4538 134.357 97.6185C134.565 97.7398 134.791 97.8178 135.033 97.8525C135.276 97.8525 135.54 97.8611 135.826 97.8785C136.121 97.8958 136.407 97.8958 136.684 97.8785C136.962 97.8611 137.217 97.8091 137.451 97.7225C137.685 97.6358 137.876 97.4885 138.023 97.2805C138.084 97.2285 138.132 97.1375 138.166 97.0075C138.21 96.8688 138.244 96.7085 138.27 96.5265C138.296 96.3358 138.318 96.1321 138.335 95.9155C138.353 95.6988 138.37 95.4778 138.387 95.2525C138.292 95.2265 138.171 95.2135 138.023 95.2135C137.876 95.2048 137.72 95.2048 137.555 95.2135C137.399 95.2221 137.248 95.2308 137.1 95.2395C136.953 95.2395 136.836 95.2351 136.749 95.2265C136.767 95.5818 136.71 95.8505 136.58 96.0325C136.459 96.2058 136.307 96.3098 136.125 96.3445C135.943 96.3791 135.757 96.3488 135.566 96.2535C135.376 96.1581 135.228 96.0108 135.124 95.8115C135.029 95.6555 134.973 95.4951 134.955 95.3305C134.947 95.1658 134.938 94.9535 134.929 94.6935V94.4595ZM136.502 92.4445C136.658 92.5225 136.78 92.6395 136.866 92.7955C136.962 92.9515 137.009 93.1161 137.009 93.2895C137.009 93.3588 137.009 93.4065 137.009 93.4325C137.009 93.4498 136.983 93.4628 136.931 93.4715C136.888 93.4715 136.81 93.4671 136.697 93.4585C136.585 93.4498 136.416 93.4455 136.19 93.4455C135.861 93.4455 135.61 93.4498 135.436 93.4585C135.272 93.4585 135.15 93.4541 135.072 93.4455C134.994 93.4281 134.951 93.4021 134.942 93.3675C134.942 93.3241 134.951 93.2548 134.968 93.1595C134.986 93.0468 135.012 92.9385 135.046 92.8345C135.09 92.7305 135.15 92.6395 135.228 92.5615C135.306 92.4835 135.41 92.4228 135.54 92.3795C135.67 92.3361 135.839 92.3145 136.047 92.3145C136.143 92.3145 136.225 92.3275 136.294 92.3535C136.364 92.3708 136.433 92.4011 136.502 92.4445ZM144.346 93.2245C144.346 92.7565 144.259 92.3361 144.086 91.9635C143.912 91.5821 143.622 91.3048 143.215 91.1315C142.989 91.0795 142.742 91.0405 142.474 91.0145C142.205 90.9798 141.936 90.9625 141.668 90.9625C141.399 90.9625 141.143 90.9755 140.901 91.0015C140.667 91.0275 140.467 91.0621 140.303 91.1055C139.878 91.2181 139.549 91.4348 139.315 91.7555C139.089 92.0761 138.968 92.4271 138.951 92.8085C138.942 93.1811 139.046 93.5451 139.263 93.9005C139.488 94.2471 139.843 94.5028 140.329 94.6675C140.571 94.7715 140.818 94.8451 141.07 94.8885C141.321 94.9318 141.546 94.9838 141.746 95.0445C141.945 95.0965 142.105 95.1745 142.227 95.2785C142.348 95.3825 142.396 95.5385 142.37 95.7465C142.378 95.9978 142.3 96.1711 142.136 96.2665C141.971 96.3618 141.789 96.4008 141.59 96.3835C141.39 96.3575 141.2 96.2838 141.018 96.1625C140.844 96.0325 140.753 95.8678 140.745 95.6685C140.476 95.6685 140.16 95.6641 139.796 95.6555C139.432 95.6381 139.107 95.6468 138.821 95.6815V95.7075V95.7465C138.821 96.0931 138.89 96.4051 139.029 96.6825C139.176 96.9598 139.375 97.1938 139.627 97.3845C139.887 97.5751 140.194 97.7181 140.55 97.8135C140.905 97.9088 141.304 97.9478 141.746 97.9305C142.248 97.9391 142.712 97.8525 143.137 97.6705C143.561 97.4885 143.873 97.1851 144.073 96.7605C144.237 96.2838 144.298 95.8851 144.255 95.5645C144.211 95.2351 144.094 94.9145 143.904 94.6025C143.704 94.3425 143.392 94.1561 142.968 94.0435C142.543 93.9221 142.088 93.8268 141.603 93.7575C141.403 93.6881 141.252 93.5841 141.148 93.4455C141.044 93.3068 140.992 93.1681 140.992 93.0295C140.992 92.8908 141.039 92.7651 141.135 92.6525C141.239 92.5311 141.39 92.4531 141.59 92.4185C141.702 92.4098 141.815 92.4271 141.928 92.4705C142.049 92.5051 142.153 92.5615 142.24 92.6395C142.335 92.7175 142.404 92.8085 142.448 92.9125C142.5 93.0165 142.513 93.1205 142.487 93.2245C142.781 93.2851 143.093 93.3111 143.423 93.3025C143.761 93.2938 144.068 93.2678 144.346 93.2245Z" fill="#C20A0A"/>
</svg>
