<svg width="151" height="150" viewBox="0 0 151 150" fill="none" xmlns="http://www.w3.org/2000/svg">
<path d="M0.693726 0V150H150.694V0H0.693726Z" fill="#31D416"/>
<path d="M32.7496 104.599V131.249C28.4996 131.449 24.2496 131.399 19.9996 131.149C19.8996 129.849 19.7496 128.749 19.7496 127.699C19.7496 108.949 19.6996 90.2491 19.7496 71.4991C19.7996 56.3991 28.6996 43.6991 42.1996 39.2491C62.2496 32.5991 82.4996 47.0991 84.3496 67.4491C85.7496 82.7491 77.6996 96.3491 64.2996 102.099C59.9996 103.949 55.4996 104.549 50.8996 104.549C44.9996 104.599 39.1996 104.599 32.7496 104.599ZM32.7996 91.1491C39.3496 91.1491 45.4496 91.0491 51.5496 91.1491C62.3996 91.3491 70.1496 83.2491 71.4996 73.6491C72.9996 62.6491 65.2996 52.5491 54.3496 50.9991H54.2996C44.0996 49.6491 33.7996 57.5491 32.9496 68.0991C32.2996 75.5991 32.7996 83.0991 32.7996 91.1491Z" fill="white"/>
<path d="M120.15 69.9996L144.4 104.1H128.7L110.7 79.4496C104.15 87.5996 98.7003 96.0496 92.5003 104.1H76.8503L101.05 69.9996L79.5003 37.6996H95.2003L110.6 60.6996L126 37.6996H141.65L120.15 69.9996Z" fill="white"/>
<path d="M32.7983 91.1474C32.7983 83.0974 32.2983 75.5474 32.8983 68.1474C33.7483 57.5974 44.0483 49.6974 54.2483 51.0474C65.2483 52.5474 72.9483 62.6474 71.4483 73.6474C70.1483 83.2474 62.3483 91.3474 51.4983 91.1474C45.4483 91.0474 39.3483 91.1474 32.7983 91.1474Z" fill="#31D416"/>
</svg>
