<svg width="151" height="150" viewBox="0 0 151 150" fill="none" xmlns="http://www.w3.org/2000/svg">
<path d="M150.231 0H0.231232V150H150.231V0Z" fill="#0071B9"/>
<path d="M121.92 43.1552H92.6884V50.4265H121.92V43.1552Z" fill="white"/>
<path d="M133.565 84.0157C133.565 85.3274 133.513 86.5899 133.408 87.7969H95.8983H95.8111C95.4622 96.0863 101.512 101.02 108.391 101.02C113.266 101.02 117.55 98.4338 120.019 94.0506H132.326C128.949 106.374 119.027 111.502 107.315 111.502C91.9716 111.502 81.0642 99.1961 81.0642 84.0161C81.0642 68.8361 92.8179 56.5298 107.315 56.5298C121.811 56.5298 133.565 68.8357 133.565 84.0157ZM95.8111 78.6204H118.935C118.016 71.7911 113.19 67.4369 107.373 67.4369C101.556 67.4365 96.73 71.7908 95.8111 78.6204Z" fill="white"/>
<path d="M76.54 85.182C77.4853 95.7258 75.5947 102.27 64.8327 107.578C60.8044 109.565 55.755 110.188 51.0167 110.188H16.9134V38.4989C16.9134 38.4989 49.7808 38.4989 54.4345 38.4989C59.0882 38.4989 73.4625 41.262 73.5441 55.0781C73.5994 64.6301 68.1923 68.9958 63.6752 71.0872C63.6752 71.0869 75.5947 74.6383 76.54 85.182ZM61.1796 88.2157C61.1796 78.1549 49.8186 78.4165 49.8186 78.4165H32.6927V98.0146H49.8186C49.8186 98.0149 61.1796 98.2766 61.1796 88.2157ZM58.3612 59.0772C58.3612 50.6423 48.8355 50.8605 48.8355 50.8605H32.6927V67.2942H48.8355C48.8355 67.2942 58.3612 67.5121 58.3612 59.0772Z" fill="white"/>
</svg>
